<svg width="328" height="48" viewBox="0 0 328 48" fill="none" xmlns="http://www.w3.org/2000/svg">
<g filter="url(#filter0_iiii_2512_46)">
<rect width="328" height="48" fill="#B9B9B9"/>
<path d="M4 4H6V6H4V4Z" fill="white"/>
<path d="M52 4H54V6H52V4Z" fill="white"/>
<path d="M28 4H30V6H28V4Z" fill="white"/>
<path d="M76 4H78V6H76V4Z" fill="white"/>
<path d="M28 28H30V30H28V28Z" fill="white"/>
<path d="M76 28H78V30H76V28Z" fill="white"/>
<path d="M4 28H6V30H4V28Z" fill="white"/>
<path d="M52 28H54V30H52V28Z" fill="white"/>
<path d="M16 4H18V6H16V4Z" fill="white"/>
<path d="M64 4H66V6H64V4Z" fill="white"/>
<path d="M40 4H42V6H40V4Z" fill="white"/>
<path d="M88 4H90V6H88V4Z" fill="white"/>
<path d="M40 28H42V30H40V28Z" fill="white"/>
<path d="M88 28H90V30H88V28Z" fill="white"/>
<path d="M16 28H18V30H16V28Z" fill="white"/>
<path d="M64 28H66V30H64V28Z" fill="white"/>
<path d="M10 6.00001H12V8.00001H10V6.00001Z" fill="white"/>
<path d="M58 6.00001H60V8.00001H58V6.00001Z" fill="white"/>
<path d="M34 6.00001H36V8.00001H34V6.00001Z" fill="white"/>
<path d="M82 6.00001H84V8.00001H82V6.00001Z" fill="white"/>
<path d="M34 30H36V32H34V30Z" fill="white"/>
<path d="M82 30H84V32H82V30Z" fill="white"/>
<path d="M10 30H12V32H10V30Z" fill="white"/>
<path d="M58 30H60V32H58V30Z" fill="white"/>
<path d="M22 6.00001H24V8.00001H22V6.00001Z" fill="white"/>
<path d="M70 6.00001H72V8.00001H70V6.00001Z" fill="white"/>
<path d="M46 6.00001H48V8.00001H46V6.00001Z" fill="white"/>
<path d="M94 6.00001H96V8.00001H94V6.00001Z" fill="white"/>
<path d="M46 30H48V32H46V30Z" fill="white"/>
<path d="M94 30H96V32H94V30Z" fill="white"/>
<path d="M22 30H24V32H22V30Z" fill="white"/>
<path d="M70 30H72V32H70V30Z" fill="white"/>
<path d="M4 12H6V14H4V12Z" fill="white"/>
<path d="M52 12H54V14H52V12Z" fill="white"/>
<path d="M28 12H30V14H28V12Z" fill="white"/>
<path d="M76 12H78V14H76V12Z" fill="white"/>
<path d="M28 36H30V38H28V36Z" fill="white"/>
<path d="M76 36H78V38H76V36Z" fill="white"/>
<path d="M4 36H6V38H4V36Z" fill="white"/>
<path d="M52 36H54V38H52V36Z" fill="white"/>
<path d="M16 12H18V14H16V12Z" fill="white"/>
<path d="M64 12H66V14H64V12Z" fill="white"/>
<path d="M40 12H42V14H40V12Z" fill="white"/>
<path d="M88 12H90V14H88V12Z" fill="white"/>
<path d="M40 36H42V38H40V36Z" fill="white"/>
<path d="M88 36H90V38H88V36Z" fill="white"/>
<path d="M16 36H18V38H16V36Z" fill="white"/>
<path d="M64 36H66V38H64V36Z" fill="white"/>
<path d="M10 14H12V16H10V14Z" fill="white"/>
<path d="M58 14H60V16H58V14Z" fill="white"/>
<path d="M34 14H36V16H34V14Z" fill="white"/>
<path d="M82 14H84V16H82V14Z" fill="white"/>
<path d="M34 38H36V40H34V38Z" fill="white"/>
<path d="M82 38H84V40H82V38Z" fill="white"/>
<path d="M10 38H12V40H10V38Z" fill="white"/>
<path d="M58 38H60V40H58V38Z" fill="white"/>
<path d="M22 26H20V24H22V26Z" fill="white"/>
<path d="M70 26H68V24H70V26Z" fill="white"/>
<path d="M46 26H44V24H46V26Z" fill="white"/>
<path d="M94 26H92V24H94V26Z" fill="white"/>
<path d="M22 14H24V16H22V14Z" fill="white"/>
<path d="M70 14H72V16H70V14Z" fill="white"/>
<path d="M46 14H48V16H46V14Z" fill="white"/>
<path d="M94 14H96V16H94V14Z" fill="white"/>
<path d="M46 38H48V40H46V38Z" fill="white"/>
<path d="M94 38H96V40H94V38Z" fill="white"/>
<path d="M22 38H24V40H22V38Z" fill="white"/>
<path d="M70 38H72V40H70V38Z" fill="white"/>
<path d="M10 26H8V24H10V26Z" fill="white"/>
<path d="M58 26H56V24H58V26Z" fill="white"/>
<path d="M34 26H32V24H34V26Z" fill="white"/>
<path d="M82 26H80V24H82V26Z" fill="white"/>
<path d="M4 8.00001H6V10H4V8.00001Z" fill="white"/>
<path d="M52 8.00001H54V10H52V8.00001Z" fill="white"/>
<path d="M28 8.00001H30V10H28V8.00001Z" fill="white"/>
<path d="M76 8.00001H78V10H76V8.00001Z" fill="white"/>
<path d="M28 32H30V34H28V32Z" fill="white"/>
<path d="M76 32H78V34H76V32Z" fill="white"/>
<path d="M4 32H6V34H4V32Z" fill="white"/>
<path d="M52 32H54V34H52V32Z" fill="white"/>
<path d="M16 8.00001H18V10H16V8.00001Z" fill="white"/>
<path d="M64 8.00001H66V10H64V8.00001Z" fill="white"/>
<path d="M40 8.00001H42V10H40V8.00001Z" fill="white"/>
<path d="M88 8.00001H90V10H88V8.00001Z" fill="white"/>
<path d="M40 32H42V34H40V32Z" fill="white"/>
<path d="M88 32H90V34H88V32Z" fill="white"/>
<path d="M16 32H18V34H16V32Z" fill="white"/>
<path d="M64 32H66V34H64V32Z" fill="white"/>
<path d="M10 10H12V12H10V10Z" fill="white"/>
<path d="M58 10H60V12H58V10Z" fill="white"/>
<path d="M34 10H36V12H34V10Z" fill="white"/>
<path d="M82 10H84V12H82V10Z" fill="white"/>
<path d="M34 34H36V36H34V34Z" fill="white"/>
<path d="M82 34H84V36H82V34Z" fill="white"/>
<path d="M10 34H12V36H10V34Z" fill="white"/>
<path d="M58 34H60V36H58V34Z" fill="white"/>
<path d="M22 10H24V12H22V10Z" fill="white"/>
<path d="M70 10H72V12H70V10Z" fill="white"/>
<path d="M46 10H48V12H46V10Z" fill="white"/>
<path d="M94 10H96V12H94V10Z" fill="white"/>
<path d="M46 34H48V36H46V34Z" fill="white"/>
<path d="M94 34H96V36H94V34Z" fill="white"/>
<path d="M22 34H24V36H22V34Z" fill="white"/>
<path d="M70 34H72V36H70V34Z" fill="white"/>
<path d="M4 16H6V18H4V16Z" fill="white"/>
<path d="M52 16H54V18H52V16Z" fill="white"/>
<path d="M28 16H30V18H28V16Z" fill="white"/>
<path d="M76 16H78V18H76V16Z" fill="white"/>
<path d="M28 40H30V42H28V40Z" fill="white"/>
<path d="M76 40H78V42H76V40Z" fill="white"/>
<path d="M4 40H6V42H4V40Z" fill="white"/>
<path d="M52 40H54V42H52V40Z" fill="white"/>
<path d="M28 24H26V22H28V24Z" fill="white"/>
<path d="M76 24H74V22H76V24Z" fill="white"/>
<path d="M52 24H50V22H52V24Z" fill="white"/>
<path d="M100 24H98V22H100V24Z" fill="white"/>
<path d="M28 28H26V26H28V28Z" fill="white"/>
<path d="M76 28H74V26H76V28Z" fill="white"/>
<path d="M52 28H50V26H52V28Z" fill="white"/>
<path d="M100 28H98V26H100V28Z" fill="white"/>
<path d="M16 16H18V18H16V16Z" fill="white"/>
<path d="M64 16H66V18H64V16Z" fill="white"/>
<path d="M40 16H42V18H40V16Z" fill="white"/>
<path d="M88 16H90V18H88V16Z" fill="white"/>
<path d="M40 40H42V42H40V40Z" fill="white"/>
<path d="M88 40H90V42H88V40Z" fill="white"/>
<path d="M16 40H18V42H16V40Z" fill="white"/>
<path d="M64 40H66V42H64V40Z" fill="white"/>
<path d="M16 24H14V22H16V24Z" fill="white"/>
<path d="M64 24H62V22H64V24Z" fill="white"/>
<path d="M40 24H38V22H40V24Z" fill="white"/>
<path d="M88 24H86V22H88V24Z" fill="white"/>
<path d="M16 28H14V26H16V28Z" fill="white"/>
<path d="M64 28H62V26H64V28Z" fill="white"/>
<path d="M40 28H38V26H40V28Z" fill="white"/>
<path d="M88 28H86V26H88V28Z" fill="white"/>
<path d="M10 18H12V20H10V18Z" fill="white"/>
<path d="M58 18H60V20H58V18Z" fill="white"/>
<path d="M34 18H36V20H34V18Z" fill="white"/>
<path d="M82 18H84V20H82V18Z" fill="white"/>
<path d="M34 42H36V44H34V42Z" fill="white"/>
<path d="M82 42H84V44H82V42Z" fill="white"/>
<path d="M10 42H12V44H10V42Z" fill="white"/>
<path d="M58 42H60V44H58V42Z" fill="white"/>
<path d="M22 22H20V20H22V22Z" fill="white"/>
<path d="M70 22H68V20H70V22Z" fill="white"/>
<path d="M46 22H44V20H46V22Z" fill="white"/>
<path d="M94 22H92V20H94V22Z" fill="white"/>
<path d="M22 18H24V20L22 20V18Z" fill="white"/>
<path d="M70 18H72V20L70 20V18Z" fill="white"/>
<path d="M46 18H48V20L46 20V18Z" fill="white"/>
<path d="M94 18H96V20L94 20V18Z" fill="white"/>
<path d="M46 42H48V44H46V42Z" fill="white"/>
<path d="M94 42H96V44H94V42Z" fill="white"/>
<path d="M22 42H24V44H22V42Z" fill="white"/>
<path d="M70 42H72V44H70V42Z" fill="white"/>
<path d="M10 22H8V20L10 20V22Z" fill="white"/>
<path d="M58 22H56V20L58 20V22Z" fill="white"/>
<path d="M34 22H32V20L34 20V22Z" fill="white"/>
<path d="M82 22H80V20L82 20V22Z" fill="white"/>
<path d="M6 6L8 6.00001V8.00001H6V6Z" fill="white"/>
<path d="M54 6L56 6.00001V8.00001H54V6Z" fill="white"/>
<path d="M30 6L32 6.00001V8.00001H30V6Z" fill="white"/>
<path d="M78 6L80 6.00001V8.00001H78V6Z" fill="white"/>
<path d="M30 30L32 30V32L30 32V30Z" fill="white"/>
<path d="M78 30L80 30V32L78 32V30Z" fill="white"/>
<path d="M6 30L8 30V32L6 32V30Z" fill="white"/>
<path d="M54 30L56 30V32L54 32V30Z" fill="white"/>
<path d="M18 6L20.0001 6.00001V8.00001H18V6Z" fill="white"/>
<path d="M66 6L68 6.00001V8.00001H66V6Z" fill="white"/>
<path d="M42 6L44 6.00001V8.00001H42V6Z" fill="white"/>
<path d="M90 6L92 6.00001V8.00001H90V6Z" fill="white"/>
<path d="M42 30L44 30V32L42 32V30Z" fill="white"/>
<path d="M90 30L92 30V32L90 32V30Z" fill="white"/>
<path d="M18 30L20.0001 30V32L18 32V30Z" fill="white"/>
<path d="M66 30L68 30V32L66 32V30Z" fill="white"/>
<path d="M12 8.00001H14.0001V10L12 10V8.00001Z" fill="white"/>
<path d="M60 8.00001H62V10L60 10V8.00001Z" fill="white"/>
<path d="M36 8.00001H38V10L36 10V8.00001Z" fill="white"/>
<path d="M84 8.00001H86V10L84 10V8.00001Z" fill="white"/>
<path d="M36 32L38 32V34L36 34V32Z" fill="white"/>
<path d="M84 32L86 32V34L84 34V32Z" fill="white"/>
<path d="M12 32L14.0001 32V34L12 34V32Z" fill="white"/>
<path d="M60 32L62 32V34L60 34V32Z" fill="white"/>
<path d="M24 8.00001H26.0001V10L24 10V8.00001Z" fill="white"/>
<path d="M72 8.00001H74V10L72 10V8.00001Z" fill="white"/>
<path d="M48 8.00001H50V10L48 10V8.00001Z" fill="white"/>
<path d="M96 8.00001H98V10L96 10V8.00001Z" fill="white"/>
<path d="M48 32L50 32V34L48 34V32Z" fill="white"/>
<path d="M96 32L98 32V34L96 34V32Z" fill="white"/>
<path d="M24 32L26.0001 32V34L24 34V32Z" fill="white"/>
<path d="M72 32L74 32V34L72 34V32Z" fill="white"/>
<path d="M6 14L8 14V16L6 16V14Z" fill="white"/>
<path d="M54 14L56 14V16L54 16V14Z" fill="white"/>
<path d="M30 14L32 14V16L30 16V14Z" fill="white"/>
<path d="M78 14L80 14V16L78 16V14Z" fill="white"/>
<path d="M30 38L32 38V40L30 40V38Z" fill="white"/>
<path d="M78 38L80 38V40L78 40V38Z" fill="white"/>
<path d="M6 38L8 38V40L6 40V38Z" fill="white"/>
<path d="M54 38L56 38V40L54 40V38Z" fill="white"/>
<path d="M26 26L24 26V24L26 24V26Z" fill="white"/>
<path d="M74 26L72 26V24L74 24V26Z" fill="white"/>
<path d="M50 26L48 26V24L50 24V26Z" fill="white"/>
<path d="M98 26L96 26V24L98 24V26Z" fill="white"/>
<path d="M18 14L20.0001 14V16L18 16V14Z" fill="white"/>
<path d="M66 14L68 14V16L66 16V14Z" fill="white"/>
<path d="M42 14L44 14V16L42 16V14Z" fill="white"/>
<path d="M90 14L92 14V16L90 16V14Z" fill="white"/>
<path d="M42 38L44 38V40L42 40V38Z" fill="white"/>
<path d="M90 38L92 38V40L90 40V38Z" fill="white"/>
<path d="M18 38L20.0001 38V40L18 40V38Z" fill="white"/>
<path d="M66 38L68 38V40L66 40V38Z" fill="white"/>
<path d="M14 26L12 26V24L14 24V26Z" fill="white"/>
<path d="M62 26L60 26V24L62 24V26Z" fill="white"/>
<path d="M38 26L36 26V24L38 24V26Z" fill="white"/>
<path d="M86 26L84 26V24L86 24V26Z" fill="white"/>
<path d="M12 16L14.0001 16V18L12 18V16Z" fill="white"/>
<path d="M60 16L62 16V18L60 18V16Z" fill="white"/>
<path d="M36 16L38 16V18L36 18V16Z" fill="white"/>
<path d="M84 16L86 16V18L84 18V16Z" fill="white"/>
<path d="M36 40L38 40V42L36 42V40Z" fill="white"/>
<path d="M84 40L86 40V42L84 42V40Z" fill="white"/>
<path d="M12 40L14.0001 40V42L12 42V40Z" fill="white"/>
<path d="M60 40L62 40V42L60 42V40Z" fill="white"/>
<path d="M20 24L18 24V22L20 22V24Z" fill="white"/>
<path d="M68 24L66 24V22L68 22V24Z" fill="white"/>
<path d="M44 24L42 24V22L44 22V24Z" fill="white"/>
<path d="M92 24L90 24V22L92 22V24Z" fill="white"/>
<path d="M20 28H18V26L20 26V28Z" fill="white"/>
<path d="M68 28H66V26L68 26V28Z" fill="white"/>
<path d="M44 28H42V26L44 26V28Z" fill="white"/>
<path d="M92 28H90V26L92 26V28Z" fill="white"/>
<path d="M24 16L26.0001 16V18L24 18V16Z" fill="white"/>
<path d="M72 16L74 16V18L72 18V16Z" fill="white"/>
<path d="M48 16L50 16V18L48 18V16Z" fill="white"/>
<path d="M96 16L98 16V18L96 18V16Z" fill="white"/>
<path d="M48 40L50 40V42L48 42V40Z" fill="white"/>
<path d="M96 40L98 40V42L96 42V40Z" fill="white"/>
<path d="M24 40L26.0001 40V42L24 42V40Z" fill="white"/>
<path d="M72 40L74 40V42L72 42V40Z" fill="white"/>
<path d="M8 24L6 24V22L8 22V24Z" fill="white"/>
<path d="M56 24L54 24V22L56 22V24Z" fill="white"/>
<path d="M32 24L29.9999 24V22L32 22V24Z" fill="white"/>
<path d="M80 24L78 24V22L80 22V24Z" fill="white"/>
<path d="M8 28H6L6 26L8 26V28Z" fill="white"/>
<path d="M56 28H54V26L56 26V28Z" fill="white"/>
<path d="M31.9999 28H30L29.9999 26L32 26L31.9999 28Z" fill="white"/>
<path d="M80 28H78V26L80 26V28Z" fill="white"/>
<path d="M6 10L8 10V12L6 12V10Z" fill="white"/>
<path d="M54 10L56 10V12L54 12V10Z" fill="white"/>
<path d="M30 10L32 10V12L30 12V10Z" fill="white"/>
<path d="M78 10L80 10V12L78 12V10Z" fill="white"/>
<path d="M30 34L32 34V36L30 36V34Z" fill="white"/>
<path d="M78 34L80 34V36L78 36V34Z" fill="white"/>
<path d="M6 34L8 34V36L6 36V34Z" fill="white"/>
<path d="M54 34L56 34V36L54 36V34Z" fill="white"/>
<path d="M18 10L20.0001 10V12L18 12V10Z" fill="white"/>
<path d="M66 10L68 10V12L66 12V10Z" fill="white"/>
<path d="M42 10L44 10V12L42 12V10Z" fill="white"/>
<path d="M90 10L92 10V12L90 12V10Z" fill="white"/>
<path d="M42 34L44 34V36L42 36V34Z" fill="white"/>
<path d="M90 34L92 34V36L90 36V34Z" fill="white"/>
<path d="M18 34L20.0001 34V36L18 36V34Z" fill="white"/>
<path d="M66 34L68 34V36L66 36V34Z" fill="white"/>
<path d="M12 12L14.0001 12V14L12 14V12Z" fill="white"/>
<path d="M60 12L62 12V14L60 14V12Z" fill="white"/>
<path d="M36 12L38 12V14L36 14V12Z" fill="white"/>
<path d="M84 12L86 12V14L84 14V12Z" fill="white"/>
<path d="M36 36L38 36V38L36 38V36Z" fill="white"/>
<path d="M84 36L86 36V38L84 38V36Z" fill="white"/>
<path d="M12 36L14.0001 36V38L12 38V36Z" fill="white"/>
<path d="M60 36L62 36V38L60 38V36Z" fill="white"/>
<path d="M24 12L26.0001 12V14L24 14V12Z" fill="white"/>
<path d="M72 12L74 12V14L72 14V12Z" fill="white"/>
<path d="M48 12L50 12V14L48 14V12Z" fill="white"/>
<path d="M96 12L98 12V14L96 14V12Z" fill="white"/>
<path d="M48 36L50 36V38L48 38V36Z" fill="white"/>
<path d="M96 36L98 36V38L96 38V36Z" fill="white"/>
<path d="M24 36L26.0001 36V38L24 38V36Z" fill="white"/>
<path d="M72 36L74 36V38L72 38V36Z" fill="white"/>
<path d="M6 18L8 18V20L6 20L6 18Z" fill="white"/>
<path d="M54 18L56 18V20L54 20V18Z" fill="white"/>
<path d="M30 18L32 18V20L30 20V18Z" fill="white"/>
<path d="M78 18L80 18V20L78 20V18Z" fill="white"/>
<path d="M30 42L32 42V44H30V42Z" fill="white"/>
<path d="M78 42L80 42V44H78V42Z" fill="white"/>
<path d="M6 42L8 42V44H6L6 42Z" fill="white"/>
<path d="M54 42L56 42V44H54V42Z" fill="white"/>
<path d="M26 22L24 22V20L26 20V22Z" fill="white"/>
<path d="M74 22L72 22V20L74 20V22Z" fill="white"/>
<path d="M50 22L48 22V20L50 20V22Z" fill="white"/>
<path d="M98 22L96 22V20L98 20V22Z" fill="white"/>
<path d="M18 18L20.0001 18L20 20L18.0001 20L18 18Z" fill="white"/>
<path d="M66 18L68 18V20L66 20V18Z" fill="white"/>
<path d="M42 18L44 18V20L42 20V18Z" fill="white"/>
<path d="M90 18L92 18V20L90 20V18Z" fill="white"/>
<path d="M42 42L44 42V44H42V42Z" fill="white"/>
<path d="M90 42L92 42V44H90V42Z" fill="white"/>
<path d="M18 42L20.0001 42V44H18.0001L18 42Z" fill="white"/>
<path d="M66 42L68 42V44H66V42Z" fill="white"/>
<path d="M14 22L12 22V20L14 20V22Z" fill="white"/>
<path d="M62 22L60 22V20L62 20V22Z" fill="white"/>
<path d="M38 22L36 22V20L38 20V22Z" fill="white"/>
<path d="M86 22L84 22V20L86 20V22Z" fill="white"/>
<path d="M12.0001 4H14.0001V6L12 6.00001L12.0001 4Z" fill="white"/>
<path d="M60 4H62V6L60 6.00001V4Z" fill="white"/>
<path d="M36 4H38V6L36 6.00001V4Z" fill="white"/>
<path d="M84 4H86V6L84 6.00001V4Z" fill="white"/>
<path d="M36 28H38V30L36 30V28Z" fill="white"/>
<path d="M84 28H86V30L84 30V28Z" fill="white"/>
<path d="M12.0001 28H14L14.0001 30L12 30L12.0001 28Z" fill="white"/>
<path d="M60 28H62V30L60 30V28Z" fill="white"/>
<path d="M24.0001 4H26.0001V6L24 6.00001L24.0001 4Z" fill="white"/>
<path d="M72 4H74V6L72 6.00001V4Z" fill="white"/>
<path d="M48 4H50V6L48 6.00001V4Z" fill="white"/>
<path d="M96 4H98V6L96 6.00001V4Z" fill="white"/>
<path d="M48 28H50V30L48 30V28Z" fill="white"/>
<path d="M96 28H98V30L96 30V28Z" fill="white"/>
<path d="M24.0001 28H26L26.0001 30L24 30L24.0001 28Z" fill="white"/>
<path d="M72 28H74V30L72 30V28Z" fill="white"/>
<path d="M8 4H10V6.00001H8V4Z" fill="white"/>
<path d="M56 4H58V6.00001H56V4Z" fill="white"/>
<path d="M31.9999 4H33.9999L34 6.00001H32L31.9999 4Z" fill="white"/>
<path d="M80 4H82V6.00001H80V4Z" fill="white"/>
<path d="M31.9999 28H33.9999L34 30H32L31.9999 28Z" fill="white"/>
<path d="M80 28H82V30H80V28Z" fill="white"/>
<path d="M8 28H10V30H8V28Z" fill="white"/>
<path d="M56 28H58V30H56V28Z" fill="white"/>
<path d="M20 4H22V6.00001H20.0001L20 4Z" fill="white"/>
<path d="M68 4H70V6.00001H68V4Z" fill="white"/>
<path d="M44 4H46V6.00001H44V4Z" fill="white"/>
<path d="M92 4H94V6.00001H92V4Z" fill="white"/>
<path d="M44 28H46V30H44V28Z" fill="white"/>
<path d="M92 28H94V30H92V28Z" fill="white"/>
<path d="M20 28H22V30H20.0001L20 28Z" fill="white"/>
<path d="M68 28H70V30H68V28Z" fill="white"/>
<path d="M14.0001 6H16V8.00001H14.0001V6Z" fill="white"/>
<path d="M62 6H64V8.00001H62V6Z" fill="white"/>
<path d="M38 6H40V8.00001H38V6Z" fill="white"/>
<path d="M86 6H88V8.00001H86V6Z" fill="white"/>
<path d="M38 30H40V32H38V30Z" fill="white"/>
<path d="M86 30H88V32H86V30Z" fill="white"/>
<path d="M14.0001 30H16V32H14.0001V30Z" fill="white"/>
<path d="M62 30H64V32H62V30Z" fill="white"/>
<path d="M26.0001 6H28V8.00001H26.0001V6Z" fill="white"/>
<path d="M74 6H76V8.00001H74V6Z" fill="white"/>
<path d="M50 6H52V8.00001H50V6Z" fill="white"/>
<path d="M98 6L100 6.00001V8.00001H98V6Z" fill="white"/>
<path d="M50 30H52V32H50V30Z" fill="white"/>
<path d="M98 30L100 30V32L98 32V30Z" fill="white"/>
<path d="M26.0001 30H28V32H26.0001V30Z" fill="white"/>
<path d="M74 30H76V32H74V30Z" fill="white"/>
<path d="M8 12H10V14H8V12Z" fill="white"/>
<path d="M56 12H58V14H56V12Z" fill="white"/>
<path d="M32 12H34V14H32V12Z" fill="white"/>
<path d="M80 12H82V14H80V12Z" fill="white"/>
<path d="M32 36H34V38H32V36Z" fill="white"/>
<path d="M80 36H82V38H80V36Z" fill="white"/>
<path d="M8 36H10V38H8V36Z" fill="white"/>
<path d="M56 36H58V38H56V36Z" fill="white"/>
<path d="M20.0001 12H22V14H20.0001V12Z" fill="white"/>
<path d="M68 12H70V14H68V12Z" fill="white"/>
<path d="M44 12H46V14H44V12Z" fill="white"/>
<path d="M92 12H94V14H92V12Z" fill="white"/>
<path d="M44 36H46V38H44V36Z" fill="white"/>
<path d="M92 36H94V38H92V36Z" fill="white"/>
<path d="M20.0001 36H22V38H20.0001V36Z" fill="white"/>
<path d="M68 36H70V38H68V36Z" fill="white"/>
<path d="M14.0001 14H16V16H14.0001V14Z" fill="white"/>
<path d="M62 14H64V16H62V14Z" fill="white"/>
<path d="M38 14H40V16H38V14Z" fill="white"/>
<path d="M86 14H88V16H86V14Z" fill="white"/>
<path d="M38 38H40V40H38V38Z" fill="white"/>
<path d="M86 38H88V40H86V38Z" fill="white"/>
<path d="M14.0001 38H16V40H14.0001V38Z" fill="white"/>
<path d="M62 38H64V40H62V38Z" fill="white"/>
<path d="M18 26H16V24H18V26Z" fill="white"/>
<path d="M66 26H64V24H66V26Z" fill="white"/>
<path d="M42 26H40V24H42V26Z" fill="white"/>
<path d="M90 26H88V24H90V26Z" fill="white"/>
<path d="M26.0001 14H28V16H26.0001V14Z" fill="white"/>
<path d="M74 14H76V16H74V14Z" fill="white"/>
<path d="M50 14H52V16H50V14Z" fill="white"/>
<path d="M98 14L100 14V16L98 16V14Z" fill="white"/>
<path d="M50 38H52V40H50V38Z" fill="white"/>
<path d="M98 38L100 38V40L98 40V38Z" fill="white"/>
<path d="M26.0001 38H28V40H26.0001V38Z" fill="white"/>
<path d="M74 38H76V40H74V38Z" fill="white"/>
<path d="M6 26L4 26V24L6 24V26Z" fill="white"/>
<path d="M54 26H52V24H54V26Z" fill="white"/>
<path d="M29.9999 26H28V24H29.9999V26Z" fill="white"/>
<path d="M78 26H76V24H78V26Z" fill="white"/>
<path d="M8 8.00001H10V10H8V8.00001Z" fill="white"/>
<path d="M56 8.00001H58V10H56V8.00001Z" fill="white"/>
<path d="M32 8.00001H34V10H32V8.00001Z" fill="white"/>
<path d="M80 8.00001H82V10H80V8.00001Z" fill="white"/>
<path d="M32 32H34V34H32V32Z" fill="white"/>
<path d="M80 32H82V34H80V32Z" fill="white"/>
<path d="M8 32H10V34H8V32Z" fill="white"/>
<path d="M56 32H58V34H56V32Z" fill="white"/>
<path d="M20.0001 8.00001H22V10H20.0001V8.00001Z" fill="white"/>
<path d="M68 8.00001H70V10H68V8.00001Z" fill="white"/>
<path d="M44 8.00001H46V10H44V8.00001Z" fill="white"/>
<path d="M92 8.00001H94V10H92V8.00001Z" fill="white"/>
<path d="M44 32H46V34H44V32Z" fill="white"/>
<path d="M92 32H94V34H92V32Z" fill="white"/>
<path d="M20.0001 32H22V34H20.0001V32Z" fill="white"/>
<path d="M68 32H70V34H68V32Z" fill="white"/>
<path d="M14.0001 10H16V12H14.0001V10Z" fill="white"/>
<path d="M62 10H64V12H62V10Z" fill="white"/>
<path d="M38 10H40V12H38V10Z" fill="white"/>
<path d="M86 10H88V12H86V10Z" fill="white"/>
<path d="M38 34H40V36H38V34Z" fill="white"/>
<path d="M86 34H88V36H86V34Z" fill="white"/>
<path d="M14.0001 34H16V36H14.0001V34Z" fill="white"/>
<path d="M62 34H64V36H62V34Z" fill="white"/>
<path d="M26.0001 10H28V12H26.0001V10Z" fill="white"/>
<path d="M74 10H76V12H74V10Z" fill="white"/>
<path d="M50 10H52V12H50V10Z" fill="white"/>
<path d="M98 10L100 10V12L98 12V10Z" fill="white"/>
<path d="M50 34H52V36H50V34Z" fill="white"/>
<path d="M98 34L100 34V36L98 36V34Z" fill="white"/>
<path d="M26.0001 34H28V36H26.0001V34Z" fill="white"/>
<path d="M74 34H76V36H74V34Z" fill="white"/>
<path d="M8 16H10V18H8V16Z" fill="white"/>
<path d="M56 16H58V18H56V16Z" fill="white"/>
<path d="M32 16H34V18H32V16Z" fill="white"/>
<path d="M80 16H82V18H80V16Z" fill="white"/>
<path d="M32 40H34V42H32V40Z" fill="white"/>
<path d="M80 40H82V42H80V40Z" fill="white"/>
<path d="M8 40H10V42H8V40Z" fill="white"/>
<path d="M56 40H58V42H56V40Z" fill="white"/>
<path d="M24 24H22V22H24V24Z" fill="white"/>
<path d="M72 24H70V22H72V24Z" fill="white"/>
<path d="M48 24H46V22H48V24Z" fill="white"/>
<path d="M96 24H94V22H96V24Z" fill="white"/>
<path d="M24.0001 28H22V26H24L24.0001 28Z" fill="white"/>
<path d="M72 28H70V26H72V28Z" fill="white"/>
<path d="M48 28H46V26H48V28Z" fill="white"/>
<path d="M96 28H94V26H96V28Z" fill="white"/>
<path d="M20.0001 16H22V18H20.0001V16Z" fill="white"/>
<path d="M68 16H70V18H68V16Z" fill="white"/>
<path d="M44 16H46V18H44V16Z" fill="white"/>
<path d="M92 16H94V18H92V16Z" fill="white"/>
<path d="M44 40H46V42H44V40Z" fill="white"/>
<path d="M92 40H94V42H92V40Z" fill="white"/>
<path d="M20.0001 40H22V42H20.0001V40Z" fill="white"/>
<path d="M68 40H70V42H68V40Z" fill="white"/>
<path d="M12 24H10V22H12V24Z" fill="white"/>
<path d="M60 24H58V22H60V24Z" fill="white"/>
<path d="M36 24H34V22H36V24Z" fill="white"/>
<path d="M84 24H82V22H84V24Z" fill="white"/>
<path d="M12.0001 28H10V26H12L12.0001 28Z" fill="white"/>
<path d="M60 28H58V26H60V28Z" fill="white"/>
<path d="M36 28H33.9999L34 26H36V28Z" fill="white"/>
<path d="M84 28H82V26H84V28Z" fill="white"/>
<path d="M14.0001 18H16V20L14 20L14.0001 18Z" fill="white"/>
<path d="M62 18H64V20L62 20V18Z" fill="white"/>
<path d="M38 18H40V20L38 20V18Z" fill="white"/>
<path d="M86 18H88V20L86 20V18Z" fill="white"/>
<path d="M38 42H40V44H38V42Z" fill="white"/>
<path d="M86 42H88V44H86V42Z" fill="white"/>
<path d="M14.0001 42H16V44H14L14.0001 42Z" fill="white"/>
<path d="M62 42H64V44H62V42Z" fill="white"/>
<path d="M18 22H16V20H18.0001L18 22Z" fill="white"/>
<path d="M66 22H64V20H66V22Z" fill="white"/>
<path d="M42 22H40V20H42V22Z" fill="white"/>
<path d="M90 22H88V20H90V22Z" fill="white"/>
<path d="M26.0001 18H28V20L26 20L26.0001 18Z" fill="white"/>
<path d="M74 18H76V20L74 20V18Z" fill="white"/>
<path d="M50 18H52V20L50 20V18Z" fill="white"/>
<path d="M98 18L100 18V20L98 20V18Z" fill="white"/>
<path d="M50 42H52V44H50V42Z" fill="white"/>
<path d="M98 42L100 42V44H98V42Z" fill="white"/>
<path d="M26.0001 42H28V44H26L26.0001 42Z" fill="white"/>
<path d="M74 42H76V44H74V42Z" fill="white"/>
<path d="M6 22L4 22V20L6 20V22Z" fill="white"/>
<path d="M54 22H52V20H54V22Z" fill="white"/>
<path d="M29.9999 22H28V20H30L29.9999 22Z" fill="white"/>
<path d="M78 22H76V20H78V22Z" fill="white"/>
<path d="M172 16H174V18H172V16Z" fill="white"/>
<path d="M124 16H126V18H124V16Z" fill="white"/>
<path d="M148 16H150V18H148V16Z" fill="white"/>
<path d="M100 16L102 16V18L100 18V16Z" fill="white"/>
<path d="M184 16H186V18H184V16Z" fill="white"/>
<path d="M196 16H198V18H196V16Z" fill="white"/>
<path d="M208 16H210V18H208V16Z" fill="white"/>
<path d="M136 16H138V18H136V16Z" fill="white"/>
<path d="M160 16H162V18H160V16Z" fill="white"/>
<path d="M112 16H114V18H112V16Z" fill="white"/>
<path d="M178 18H180V20H178V18Z" fill="white"/>
<path d="M130 18H132V20H130V18Z" fill="white"/>
<path d="M154 18H156V20H154V18Z" fill="white"/>
<path d="M106 18H108V20H106V18Z" fill="white"/>
<path d="M190 18H192V20H190V18Z" fill="white"/>
<path d="M202 18H204V20H202V18Z" fill="white"/>
<path d="M142 18H144V20H142V18Z" fill="white"/>
<path d="M166 18H168V20H166V18Z" fill="white"/>
<path d="M118 18H120V20H118V18Z" fill="white"/>
<path d="M172 24H174V26H172V24Z" fill="white"/>
<path d="M124 24H126V26H124V24Z" fill="white"/>
<path d="M148 24H150V26H148V24Z" fill="white"/>
<path d="M100 24L102 24V26H100V24Z" fill="white"/>
<path d="M184 24H186V26H184V24Z" fill="white"/>
<path d="M196 24H198V26H196V24Z" fill="white"/>
<path d="M208 24H210V26H208V24Z" fill="white"/>
<path d="M136 24H138V26H136V24Z" fill="white"/>
<path d="M160 24H162V26H160V24Z" fill="white"/>
<path d="M112 24H114V26H112V24Z" fill="white"/>
<path d="M178 26H180V28H178V26Z" fill="white"/>
<path d="M130 26H132V28H130V26Z" fill="white"/>
<path d="M154 26H156V28H154V26Z" fill="white"/>
<path d="M106 26H108V28H106V26Z" fill="white"/>
<path d="M166 14H164V12H166V14Z" fill="white"/>
<path d="M118 14H116V12H118V14Z" fill="white"/>
<path d="M190 14H188V12H190V14Z" fill="white"/>
<path d="M202 14H200V12H202V14Z" fill="white"/>
<path d="M142 14H140V12H142V14Z" fill="white"/>
<path d="M190 38H188V36H190V38Z" fill="white"/>
<path d="M202 38H200V36H202V38Z" fill="white"/>
<path d="M142 38H140V36H142V38Z" fill="white"/>
<path d="M166 38H164V36H166V38Z" fill="white"/>
<path d="M118 38H116V36H118V38Z" fill="white"/>
<path d="M190 26H192V28H190V26Z" fill="white"/>
<path d="M202 26H204V28H202V26Z" fill="white"/>
<path d="M142 26H144V28H142V26Z" fill="white"/>
<path d="M166 26H168V28H166V26Z" fill="white"/>
<path d="M118 26H120V28H118V26Z" fill="white"/>
<path d="M154 14H152V12H154V14Z" fill="white"/>
<path d="M106 14H104V12H106V14Z" fill="white"/>
<path d="M178 14H176V12H178V14Z" fill="white"/>
<path d="M130 14H128V12H130V14Z" fill="white"/>
<path d="M178 38H176V36H178V38Z" fill="white"/>
<path d="M130 38H128V36H130V38Z" fill="white"/>
<path d="M154 38H152V36H154V38Z" fill="white"/>
<path d="M106 38H104V36H106V38Z" fill="white"/>
<path d="M172 20H174V22H172V20Z" fill="white"/>
<path d="M124 20H126V22H124V20Z" fill="white"/>
<path d="M148 20H150V22H148V20Z" fill="white"/>
<path d="M100 20L102 20V22L100 22V20Z" fill="white"/>
<path d="M184 20H186V22H184V20Z" fill="white"/>
<path d="M196 20H198V22H196V20Z" fill="white"/>
<path d="M208 20H210V22H208V20Z" fill="white"/>
<path d="M136 20H138V22H136V20Z" fill="white"/>
<path d="M160 20H162V22H160V20Z" fill="white"/>
<path d="M112 20H114V22H112V20Z" fill="white"/>
<path d="M178 22H180V24H178V22Z" fill="white"/>
<path d="M130 22H132V24H130V22Z" fill="white"/>
<path d="M154 22H156V24H154V22Z" fill="white"/>
<path d="M106 22H108V24H106V22Z" fill="white"/>
<path d="M190 22H192V24H190V22Z" fill="white"/>
<path d="M202 22H204V24H202V22Z" fill="white"/>
<path d="M142 22H144V24H142V22Z" fill="white"/>
<path d="M166 22H168V24H166V22Z" fill="white"/>
<path d="M118 22H120V24H118V22Z" fill="white"/>
<path d="M148 4H150V6H148V4Z" fill="white"/>
<path d="M100 4H102V6L100 6.00001V4Z" fill="white"/>
<path d="M172 4H174V6H172V4Z" fill="white"/>
<path d="M124 4H126V6H124V4Z" fill="white"/>
<path d="M172 28H174V30H172V28Z" fill="white"/>
<path d="M172 40H174V42H172V40Z" fill="white"/>
<path d="M124 28H126V30H124V28Z" fill="white"/>
<path d="M124 40H126V42H124V40Z" fill="white"/>
<path d="M148 28H150V30H148V28Z" fill="white"/>
<path d="M148 40H150V42H148V40Z" fill="white"/>
<path d="M100 28H102V30L100 30V28Z" fill="white"/>
<path d="M100 40L102 40V42L100 42V40Z" fill="white"/>
<path d="M172 12H170V10H172V12Z" fill="white"/>
<path d="M124 12H122V10H124V12Z" fill="white"/>
<path d="M196 12H194V10H196V12Z" fill="white"/>
<path d="M208 12H206V10H208V12Z" fill="white"/>
<path d="M148 12H146V10H148V12Z" fill="white"/>
<path d="M196 36H194V34H196V36Z" fill="white"/>
<path d="M208 36H206V34H208V36Z" fill="white"/>
<path d="M148 36H146V34H148V36Z" fill="white"/>
<path d="M172 36H170V34H172V36Z" fill="white"/>
<path d="M124 36H122V34H124V36Z" fill="white"/>
<path d="M172 16H170V14H172V16Z" fill="white"/>
<path d="M124 16H122V14H124V16Z" fill="white"/>
<path d="M196 16H194V14H196V16Z" fill="white"/>
<path d="M208 16H206V14H208V16Z" fill="white"/>
<path d="M148 16H146V14H148V16Z" fill="white"/>
<path d="M196 40H194V38H196V40Z" fill="white"/>
<path d="M208 40H206V38H208V40Z" fill="white"/>
<path d="M148 40H146V38H148V40Z" fill="white"/>
<path d="M172 40H170V38H172V40Z" fill="white"/>
<path d="M124 40H122V38H124V40Z" fill="white"/>
<path d="M160 4H162V6H160V4Z" fill="white"/>
<path d="M112 4H114V6H112V4Z" fill="white"/>
<path d="M184 4H186V6H184V4Z" fill="white"/>
<path d="M196 4H198V6H196V4Z" fill="white"/>
<path d="M208 4H210V6H208V4Z" fill="white"/>
<path d="M136 4H138V6H136V4Z" fill="white"/>
<path d="M184 28H186V30H184V28Z" fill="white"/>
<path d="M196 28H198V30H196V28Z" fill="white"/>
<path d="M208 28H210V30H208V28Z" fill="white"/>
<path d="M184 40H186V42H184V40Z" fill="white"/>
<path d="M196 40H198V42H196V40Z" fill="white"/>
<path d="M208 40H210V42H208V40Z" fill="white"/>
<path d="M136 28H138V30H136V28Z" fill="white"/>
<path d="M136 40H138V42H136V40Z" fill="white"/>
<path d="M160 28H162V30H160V28Z" fill="white"/>
<path d="M160 40H162V42H160V40Z" fill="white"/>
<path d="M112 28H114V30H112V28Z" fill="white"/>
<path d="M112 40H114V42H112V40Z" fill="white"/>
<path d="M160 12H158V10H160V12Z" fill="white"/>
<path d="M112 12H110V10H112V12Z" fill="white"/>
<path d="M184 12H182V10H184V12Z" fill="white"/>
<path d="M136 12H134V10H136V12Z" fill="white"/>
<path d="M184 36H182V34H184V36Z" fill="white"/>
<path d="M136 36H134V34H136V36Z" fill="white"/>
<path d="M160 36H158V34H160V36Z" fill="white"/>
<path d="M112 36H110V34H112V36Z" fill="white"/>
<path d="M160 16H158V14H160V16Z" fill="white"/>
<path d="M112 16H110V14H112V16Z" fill="white"/>
<path d="M184 16H182V14H184V16Z" fill="white"/>
<path d="M136 16H134V14H136V16Z" fill="white"/>
<path d="M184 40H182V38H184V40Z" fill="white"/>
<path d="M136 40H134V38H136V40Z" fill="white"/>
<path d="M160 40H158V38H160V40Z" fill="white"/>
<path d="M112 40H110V38H112V40Z" fill="white"/>
<path d="M154 6H156V8H154V6Z" fill="white"/>
<path d="M106 6H108V8H106V6Z" fill="white"/>
<path d="M178 6H180V8H178V6Z" fill="white"/>
<path d="M130 6H132V8H130V6Z" fill="white"/>
<path d="M178 30H180V32H178V30Z" fill="white"/>
<path d="M178 42H180V44H178V42Z" fill="white"/>
<path d="M130 30H132V32H130V30Z" fill="white"/>
<path d="M130 42H132V44H130V42Z" fill="white"/>
<path d="M154 30H156V32H154V30Z" fill="white"/>
<path d="M154 42H156V44H154V42Z" fill="white"/>
<path d="M106 30H108V32H106V30Z" fill="white"/>
<path d="M106 42H108V44H106V42Z" fill="white"/>
<path d="M166 10H164V8H166V10Z" fill="white"/>
<path d="M118 10H116V8H118V10Z" fill="white"/>
<path d="M190 10H188V8H190V10Z" fill="white"/>
<path d="M202 10H200V8H202V10Z" fill="white"/>
<path d="M142 10H140V8H142V10Z" fill="white"/>
<path d="M190 34H188V32H190V34Z" fill="white"/>
<path d="M202 34H200V32H202V34Z" fill="white"/>
<path d="M142 34H140V32H142V34Z" fill="white"/>
<path d="M166 34H164V32H166V34Z" fill="white"/>
<path d="M118 34H116V32H118V34Z" fill="white"/>
<path d="M166 6H168V8H166V6Z" fill="white"/>
<path d="M118 6H120V8H118V6Z" fill="white"/>
<path d="M190 6H192V8H190V6Z" fill="white"/>
<path d="M202 6H204V8H202V6Z" fill="white"/>
<path d="M142 6H144V8H142V6Z" fill="white"/>
<path d="M190 30H192V32H190V30Z" fill="white"/>
<path d="M202 30H204V32H202V30Z" fill="white"/>
<path d="M190 42H192V44H190V42Z" fill="white"/>
<path d="M202 42H204V44H202V42Z" fill="white"/>
<path d="M142 30H144V32H142V30Z" fill="white"/>
<path d="M142 42H144V44H142V42Z" fill="white"/>
<path d="M166 30H168V32H166V30Z" fill="white"/>
<path d="M166 42H168V44H166V42Z" fill="white"/>
<path d="M118 30H120V32H118V30Z" fill="white"/>
<path d="M118 42H120V44H118V42Z" fill="white"/>
<path d="M154 10H152V8H154V10Z" fill="white"/>
<path d="M106 10H104V8H106V10Z" fill="white"/>
<path d="M178 10H176V8H178V10Z" fill="white"/>
<path d="M130 10H128V8H130V10Z" fill="white"/>
<path d="M178 34H176V32H178V34Z" fill="white"/>
<path d="M130 34H128V32H130V34Z" fill="white"/>
<path d="M154 34H152V32H154V34Z" fill="white"/>
<path d="M106 34H104V32H106V34Z" fill="white"/>
<path d="M174 18H176V20H174V18Z" fill="white"/>
<path d="M126 18H128V20H126V18Z" fill="white"/>
<path d="M150 18H152V20H150V18Z" fill="white"/>
<path d="M102 18H104V20H102V18Z" fill="white"/>
<path d="M186 18H188V20H186V18Z" fill="white"/>
<path d="M198 18H200V20H198V18Z" fill="white"/>
<path d="M210 18H212V20H210V18Z" fill="white"/>
<path d="M138 18H140V20H138V18Z" fill="white"/>
<path d="M162 18H164V20H162V18Z" fill="white"/>
<path d="M114 18H116V20H114V18Z" fill="white"/>
<path d="M180 20H182V22H180V20Z" fill="white"/>
<path d="M132 20H134V22H132V20Z" fill="white"/>
<path d="M156 20H158V22H156V20Z" fill="white"/>
<path d="M108 20H110V22H108V20Z" fill="white"/>
<path d="M192 20H194V22H192V20Z" fill="white"/>
<path d="M204 20H206V22H204V20Z" fill="white"/>
<path d="M144 20H146V22H144V20Z" fill="white"/>
<path d="M168 20H170V22H168V20Z" fill="white"/>
<path d="M120 20H122V22H120V20Z" fill="white"/>
<path d="M174 26H176V28H174V26Z" fill="white"/>
<path d="M126 26H128V28H126V26Z" fill="white"/>
<path d="M150 26H152V28H150V26Z" fill="white"/>
<path d="M102 26H104V28H102V26Z" fill="white"/>
<path d="M170 14H168V12H170V14Z" fill="white"/>
<path d="M122 14H120V12H122V14Z" fill="white"/>
<path d="M194 14H192V12H194V14Z" fill="white"/>
<path d="M206 14H204V12H206V14Z" fill="white"/>
<path d="M146 14H144V12H146V14Z" fill="white"/>
<path d="M194 38H192V36H194V38Z" fill="white"/>
<path d="M206 38H204V36H206V38Z" fill="white"/>
<path d="M146 38H144V36H146V38Z" fill="white"/>
<path d="M170 38H168V36H170V38Z" fill="white"/>
<path d="M122 38H120V36H122V38Z" fill="white"/>
<path d="M186 26H188V28H186V26Z" fill="white"/>
<path d="M198 26H200V28H198V26Z" fill="white"/>
<path d="M210 26H212V28H210V26Z" fill="white"/>
<path d="M138 26H140V28H138V26Z" fill="white"/>
<path d="M162 26H164V28H162V26Z" fill="white"/>
<path d="M114 26H116V28H114V26Z" fill="white"/>
<path d="M158 14H156V12H158V14Z" fill="white"/>
<path d="M110 14H108V12H110V14Z" fill="white"/>
<path d="M182 14H180V12H182V14Z" fill="white"/>
<path d="M134 14H132V12H134V14Z" fill="white"/>
<path d="M182 38H180V36H182V38Z" fill="white"/>
<path d="M134 38H132V36H134V38Z" fill="white"/>
<path d="M158 38H156V36H158V38Z" fill="white"/>
<path d="M110 38H108V36H110V38Z" fill="white"/>
<path d="M156 4H158V6L156 6V4Z" fill="white"/>
<path d="M108 4H110V6L108 6L108 4Z" fill="white"/>
<path d="M180 4H182V6L180 6V4Z" fill="white"/>
<path d="M132 4H134V6L132 6V4Z" fill="white"/>
<path d="M180 28H182V30H180V28Z" fill="white"/>
<path d="M180 40H182V42H180V40Z" fill="white"/>
<path d="M132 28H134V30H132V28Z" fill="white"/>
<path d="M132 40H134V42H132V40Z" fill="white"/>
<path d="M156 28H158V30H156V28Z" fill="white"/>
<path d="M156 40H158V42H156V40Z" fill="white"/>
<path d="M108 28H110V30H108V28Z" fill="white"/>
<path d="M108 40H110L110 42H108L108 40Z" fill="white"/>
<path d="M164 12H162V10H164V12Z" fill="white"/>
<path d="M116 12H114V10H116V12Z" fill="white"/>
<path d="M188 12H186V10H188V12Z" fill="white"/>
<path d="M200 12H198V10H200V12Z" fill="white"/>
<path d="M212 12H210V10H212V12Z" fill="white"/>
<path d="M140 12H138V10H140V12Z" fill="white"/>
<path d="M188 36H186V34H188V36Z" fill="white"/>
<path d="M200 36H198V34H200V36Z" fill="white"/>
<path d="M212 36H210V34H212V36Z" fill="white"/>
<path d="M140 36H138V34H140V36Z" fill="white"/>
<path d="M164 36H162V34H164V36Z" fill="white"/>
<path d="M116 36H114V34H116V36Z" fill="white"/>
<path d="M164 16H162V14H164V16Z" fill="white"/>
<path d="M116 16H114V14H116V16Z" fill="white"/>
<path d="M188 16H186V14H188V16Z" fill="white"/>
<path d="M200 16H198V14H200V16Z" fill="white"/>
<path d="M212 16H210V14H212V16Z" fill="white"/>
<path d="M140 16H138V14H140V16Z" fill="white"/>
<path d="M188 40H186V38H188V40Z" fill="white"/>
<path d="M200 40H198V38H200V40Z" fill="white"/>
<path d="M212 40H210V38H212V40Z" fill="white"/>
<path d="M140 40H138V38H140V40Z" fill="white"/>
<path d="M164 40H162V38H164V40Z" fill="white"/>
<path d="M116 40H114V38H116V40Z" fill="white"/>
<path d="M168 4H170V6L168 6V4Z" fill="white"/>
<path d="M120 4H122V6L120 6L120 4Z" fill="white"/>
<path d="M192 4H194V6L192 6V4Z" fill="white"/>
<path d="M204 4H206V6L204 6V4Z" fill="white"/>
<path d="M144 4H146V6L144 6V4Z" fill="white"/>
<path d="M192 28H194V30H192V28Z" fill="white"/>
<path d="M204 28H206V30H204V28Z" fill="white"/>
<path d="M192 40H194V42H192V40Z" fill="white"/>
<path d="M204 40H206V42H204V40Z" fill="white"/>
<path d="M144 28H146V30H144V28Z" fill="white"/>
<path d="M144 40H146V42H144V40Z" fill="white"/>
<path d="M168 28H170V30H168V28Z" fill="white"/>
<path d="M168 40H170V42H168V40Z" fill="white"/>
<path d="M120 28H122V30H120V28Z" fill="white"/>
<path d="M120 40H122L122 42H120L120 40Z" fill="white"/>
<path d="M152 12H150V10H152V12Z" fill="white"/>
<path d="M104 12H102V10H104V12Z" fill="white"/>
<path d="M176 12H174V10H176V12Z" fill="white"/>
<path d="M128 12H126V10H128V12Z" fill="white"/>
<path d="M176 36H174V34H176V36Z" fill="white"/>
<path d="M128 36H126V34H128V36Z" fill="white"/>
<path d="M152 36H150V34H152V36Z" fill="white"/>
<path d="M104 36H102V34H104V36Z" fill="white"/>
<path d="M152 16H150V14H152V16Z" fill="white"/>
<path d="M104 16H102V14H104V16Z" fill="white"/>
<path d="M176 16H174V14H176V16Z" fill="white"/>
<path d="M128 16H126L126 14H128L128 16Z" fill="white"/>
<path d="M176 40H174V38H176V40Z" fill="white"/>
<path d="M128 40H126L126 38H128L128 40Z" fill="white"/>
<path d="M152 40H150V38H152V40Z" fill="white"/>
<path d="M104 40H102V38H104V40Z" fill="white"/>
<path d="M174 22H176V24H174V22Z" fill="white"/>
<path d="M126 22H128V24H126V22Z" fill="white"/>
<path d="M150 22H152V24H150V22Z" fill="white"/>
<path d="M102 22H104V24H102V22Z" fill="white"/>
<path d="M186 22H188V24H186V22Z" fill="white"/>
<path d="M198 22H200V24H198V22Z" fill="white"/>
<path d="M210 22H212V24H210V22Z" fill="white"/>
<path d="M138 22H140V24H138V22Z" fill="white"/>
<path d="M162 22H164V24H162V22Z" fill="white"/>
<path d="M114 22H116V24H114V22Z" fill="white"/>
<path d="M180 24H182V26H180V24Z" fill="white"/>
<path d="M132 24H134V26H132V24Z" fill="white"/>
<path d="M156 24H158V26H156V24Z" fill="white"/>
<path d="M108 24H110V26H108V24Z" fill="white"/>
<path d="M192 24H194V26H192V24Z" fill="white"/>
<path d="M204 24H206V26H204V24Z" fill="white"/>
<path d="M144 24H146V26H144V24Z" fill="white"/>
<path d="M168 24H170V26H168V24Z" fill="white"/>
<path d="M120 24H122V26H120V24Z" fill="white"/>
<path d="M150 6L152 6V8H150V6Z" fill="white"/>
<path d="M102 6L104 6V8H102V6Z" fill="white"/>
<path d="M174 6L176 6V8H174V6Z" fill="white"/>
<path d="M126 6L128 6V8H126V6Z" fill="white"/>
<path d="M174 30H176V32H174V30Z" fill="white"/>
<path d="M174 42H176V44H174V42Z" fill="white"/>
<path d="M126 30H128V32H126V30Z" fill="white"/>
<path d="M126 42H128V44H126V42Z" fill="white"/>
<path d="M150 30H152V32H150V30Z" fill="white"/>
<path d="M150 42H152V44H150V42Z" fill="white"/>
<path d="M102 30H104V32H102V30Z" fill="white"/>
<path d="M102 42H104V44H102V42Z" fill="white"/>
<path d="M170 10H168V8H170V10Z" fill="white"/>
<path d="M122 10H120V8H122V10Z" fill="white"/>
<path d="M194 10H192V8H194V10Z" fill="white"/>
<path d="M206 10H204V8H206V10Z" fill="white"/>
<path d="M146 10H144V8H146V10Z" fill="white"/>
<path d="M194 34H192V32H194V34Z" fill="white"/>
<path d="M206 34H204V32H206V34Z" fill="white"/>
<path d="M146 34H144V32H146V34Z" fill="white"/>
<path d="M170 34H168V32H170V34Z" fill="white"/>
<path d="M122 34H120V32H122V34Z" fill="white"/>
<path d="M162 6L164 6V8H162V6Z" fill="white"/>
<path d="M114 6L116 6L116 8H114L114 6Z" fill="white"/>
<path d="M186 6L188 6V8H186V6Z" fill="white"/>
<path d="M198 6L200 6V8H198V6Z" fill="white"/>
<path d="M210 6H212V8H210V6Z" fill="white"/>
<path d="M138 6L140 6V8H138V6Z" fill="white"/>
<path d="M186 30H188V32H186V30Z" fill="white"/>
<path d="M198 30H200V32H198V30Z" fill="white"/>
<path d="M210 30H212V32H210V30Z" fill="white"/>
<path d="M186 42H188V44H186V42Z" fill="white"/>
<path d="M198 42H200V44H198V42Z" fill="white"/>
<path d="M210 42H212V44H210V42Z" fill="white"/>
<path d="M138 30H140V32H138V30Z" fill="white"/>
<path d="M138 42H140V44H138V42Z" fill="white"/>
<path d="M162 30H164V32H162V30Z" fill="white"/>
<path d="M162 42H164V44H162V42Z" fill="white"/>
<path d="M114 30H116L116 32H114L114 30Z" fill="white"/>
<path d="M114 42H116V44H114L114 42Z" fill="white"/>
<path d="M158 10H156V8H158V10Z" fill="white"/>
<path d="M110 10H108V8H110V10Z" fill="white"/>
<path d="M182 10H180V8H182V10Z" fill="white"/>
<path d="M134 10H132V8H134V10Z" fill="white"/>
<path d="M182 34H180V32H182V34Z" fill="white"/>
<path d="M134 34H132V32H134V34Z" fill="white"/>
<path d="M158 34H156V32H158V34Z" fill="white"/>
<path d="M110 34H108V32H110V34Z" fill="white"/>
<path d="M180 16H182V18H180V16Z" fill="white"/>
<path d="M132 16H134V18H132V16Z" fill="white"/>
<path d="M156 16H158V18H156V16Z" fill="white"/>
<path d="M108 16H110L110 18H108L108 16Z" fill="white"/>
<path d="M192 16H194V18H192V16Z" fill="white"/>
<path d="M204 16H206V18H204V16Z" fill="white"/>
<path d="M144 16H146V18H144V16Z" fill="white"/>
<path d="M168 16H170V18H168V16Z" fill="white"/>
<path d="M120 16H122L122 18H120L120 16Z" fill="white"/>
<path d="M176 16H178V18H176V16Z" fill="white"/>
<path d="M128 16H130L130 18H128L128 16Z" fill="white"/>
<path d="M152 16H154V18H152V16Z" fill="white"/>
<path d="M104 16H106V18H104V16Z" fill="white"/>
<path d="M188 16H190V18H188V16Z" fill="white"/>
<path d="M200 16H202V18H200V16Z" fill="white"/>
<path d="M140 16H142V18H140V16Z" fill="white"/>
<path d="M164 16H166V18H164V16Z" fill="white"/>
<path d="M116 16H118V18H116L116 16Z" fill="white"/>
<path d="M182 18H184V20H182V18Z" fill="white"/>
<path d="M134 18H136V20H134V18Z" fill="white"/>
<path d="M158 18H160V20H158V18Z" fill="white"/>
<path d="M110 18H112V20H110V18Z" fill="white"/>
<path d="M194 18H196V20H194V18Z" fill="white"/>
<path d="M206 18H208V20H206V18Z" fill="white"/>
<path d="M146 18H148V20H146V18Z" fill="white"/>
<path d="M170 18H172V20H170V18Z" fill="white"/>
<path d="M122 18H124V20H122V18Z" fill="white"/>
<path d="M176 24H178V26H176V24Z" fill="white"/>
<path d="M128 24H130V26H128V24Z" fill="white"/>
<path d="M152 24H154V26H152V24Z" fill="white"/>
<path d="M104 24H106V26H104V24Z" fill="white"/>
<path d="M188 24H190V26H188V24Z" fill="white"/>
<path d="M200 24H202V26H200V24Z" fill="white"/>
<path d="M140 24H142V26H140V24Z" fill="white"/>
<path d="M164 24H166V26H164V24Z" fill="white"/>
<path d="M116 24H118V26H116V24Z" fill="white"/>
<path d="M182 26H184V28H182V26Z" fill="white"/>
<path d="M134 26H136V28H134V26Z" fill="white"/>
<path d="M158 26H160V28H158V26Z" fill="white"/>
<path d="M110 26H112V28H110V26Z" fill="white"/>
<path d="M162 14H160V12H162V14Z" fill="white"/>
<path d="M114 14H112V12H114V14Z" fill="white"/>
<path d="M186 14H184V12H186V14Z" fill="white"/>
<path d="M198 14H196V12H198V14Z" fill="white"/>
<path d="M210 14H208V12H210V14Z" fill="white"/>
<path d="M138 14H136V12H138V14Z" fill="white"/>
<path d="M186 38H184V36H186V38Z" fill="white"/>
<path d="M198 38H196V36H198V38Z" fill="white"/>
<path d="M210 38H208V36H210V38Z" fill="white"/>
<path d="M138 38H136V36H138V38Z" fill="white"/>
<path d="M162 38H160V36H162V38Z" fill="white"/>
<path d="M114 38H112V36H114V38Z" fill="white"/>
<path d="M194 26H196V28H194V26Z" fill="white"/>
<path d="M206 26H208V28H206V26Z" fill="white"/>
<path d="M146 26H148V28H146V26Z" fill="white"/>
<path d="M170 26H172V28H170V26Z" fill="white"/>
<path d="M122 26H124V28H122V26Z" fill="white"/>
<path d="M150 14H148V12H150V14Z" fill="white"/>
<path d="M102 14L100 14V12H102V14Z" fill="white"/>
<path d="M174 14H172V12H174V14Z" fill="white"/>
<path d="M126 14H124V12H126V14Z" fill="white"/>
<path d="M174 38H172V36H174V38Z" fill="white"/>
<path d="M126 38H124V36H126V38Z" fill="white"/>
<path d="M150 38H148V36H150V38Z" fill="white"/>
<path d="M102 38L100 38V36H102V38Z" fill="white"/>
<path d="M176 20H178V22H176V20Z" fill="white"/>
<path d="M128 20H130V22H128V20Z" fill="white"/>
<path d="M152 20H154V22H152V20Z" fill="white"/>
<path d="M104 20H106V22H104V20Z" fill="white"/>
<path d="M188 20H190V22H188V20Z" fill="white"/>
<path d="M200 20H202V22H200V20Z" fill="white"/>
<path d="M140 20H142V22H140V20Z" fill="white"/>
<path d="M164 20H166V22H164V20Z" fill="white"/>
<path d="M116 20H118V22H116V20Z" fill="white"/>
<path d="M182 22H184V24H182V22Z" fill="white"/>
<path d="M134 22H136V24H134V22Z" fill="white"/>
<path d="M158 22H160V24H158V22Z" fill="white"/>
<path d="M110 22H112V24H110V22Z" fill="white"/>
<path d="M194 22H196V24H194V22Z" fill="white"/>
<path d="M206 22H208V24H206V22Z" fill="white"/>
<path d="M146 22H148V24H146V22Z" fill="white"/>
<path d="M170 22H172V24H170V22Z" fill="white"/>
<path d="M122 22H124V24H122V22Z" fill="white"/>
<path d="M152 4H154V6H152V4Z" fill="white"/>
<path d="M104 4H106V6H104V4Z" fill="white"/>
<path d="M176 4H178V6H176V4Z" fill="white"/>
<path d="M128 4H130L130 6H128L128 4Z" fill="white"/>
<path d="M176 28H178V30H176V28Z" fill="white"/>
<path d="M176 40H178V42H176V40Z" fill="white"/>
<path d="M128 28H130V30H128V28Z" fill="white"/>
<path d="M128 40H130L130 42H128L128 40Z" fill="white"/>
<path d="M152 28H154V30H152V28Z" fill="white"/>
<path d="M152 40H154V42H152V40Z" fill="white"/>
<path d="M104 28H106V30H104V28Z" fill="white"/>
<path d="M104 40H106V42H104V40Z" fill="white"/>
<path d="M168 12H166V10H168V12Z" fill="white"/>
<path d="M120 12H118V10H120V12Z" fill="white"/>
<path d="M192 12H190V10H192V12Z" fill="white"/>
<path d="M204 12H202V10H204V12Z" fill="white"/>
<path d="M144 12H142V10H144V12Z" fill="white"/>
<path d="M192 36H190V34H192V36Z" fill="white"/>
<path d="M204 36H202V34H204V36Z" fill="white"/>
<path d="M144 36H142V34H144V36Z" fill="white"/>
<path d="M168 36H166V34H168V36Z" fill="white"/>
<path d="M120 36H118V34H120V36Z" fill="white"/>
<path d="M168 16H166V14H168V16Z" fill="white"/>
<path d="M120 16H118V14H120L120 16Z" fill="white"/>
<path d="M192 16H190V14H192V16Z" fill="white"/>
<path d="M204 16H202V14H204V16Z" fill="white"/>
<path d="M144 16H142V14H144V16Z" fill="white"/>
<path d="M192 40H190V38H192V40Z" fill="white"/>
<path d="M204 40H202V38H204V40Z" fill="white"/>
<path d="M144 40H142V38H144V40Z" fill="white"/>
<path d="M168 40H166V38H168V40Z" fill="white"/>
<path d="M120 40H118L118 38H120L120 40Z" fill="white"/>
<path d="M164 4H166V6H164V4Z" fill="white"/>
<path d="M116 4H118V6H116L116 4Z" fill="white"/>
<path d="M188 4H190V6H188V4Z" fill="white"/>
<path d="M200 4H202V6H200V4Z" fill="white"/>
<path d="M140 4H142V6H140V4Z" fill="white"/>
<path d="M188 28H190V30H188V28Z" fill="white"/>
<path d="M200 28H202V30H200V28Z" fill="white"/>
<path d="M188 40H190V42H188V40Z" fill="white"/>
<path d="M200 40H202V42H200V40Z" fill="white"/>
<path d="M140 28H142V30H140V28Z" fill="white"/>
<path d="M140 40H142V42H140V40Z" fill="white"/>
<path d="M164 28H166V30H164V28Z" fill="white"/>
<path d="M164 40H166V42H164V40Z" fill="white"/>
<path d="M116 28H118V30H116V28Z" fill="white"/>
<path d="M116 40H118L118 42H116L116 40Z" fill="white"/>
<path d="M156 12H154V10H156V12Z" fill="white"/>
<path d="M108 12H106V10H108V12Z" fill="white"/>
<path d="M180 12H178V10H180V12Z" fill="white"/>
<path d="M132 12H130V10H132V12Z" fill="white"/>
<path d="M180 36H178V34H180V36Z" fill="white"/>
<path d="M132 36H130V34H132V36Z" fill="white"/>
<path d="M156 36H154V34H156V36Z" fill="white"/>
<path d="M108 36H106V34H108V36Z" fill="white"/>
<path d="M156 16H154V14H156V16Z" fill="white"/>
<path d="M108 16H106V14H108L108 16Z" fill="white"/>
<path d="M180 16H178V14H180V16Z" fill="white"/>
<path d="M132 16H130L130 14H132V16Z" fill="white"/>
<path d="M180 40H178V38H180V40Z" fill="white"/>
<path d="M132 40H130L130 38H132V40Z" fill="white"/>
<path d="M156 40H154V38H156V40Z" fill="white"/>
<path d="M108 40H106V38H108L108 40Z" fill="white"/>
<path d="M158 6H160V8H158V6Z" fill="white"/>
<path d="M110 6H112V8H110L110 6Z" fill="white"/>
<path d="M182 6H184V8H182V6Z" fill="white"/>
<path d="M134 6H136V8H134V6Z" fill="white"/>
<path d="M182 30H184V32H182V30Z" fill="white"/>
<path d="M182 42H184V44H182V42Z" fill="white"/>
<path d="M134 30H136V32H134V30Z" fill="white"/>
<path d="M134 42H136V44H134V42Z" fill="white"/>
<path d="M158 30H160V32H158V30Z" fill="white"/>
<path d="M158 42H160V44H158V42Z" fill="white"/>
<path d="M110 30H112V32H110L110 30Z" fill="white"/>
<path d="M110 42H112V44H110L110 42Z" fill="white"/>
<path d="M162 10H160V8H162V10Z" fill="white"/>
<path d="M114 10H112V8H114L114 10Z" fill="white"/>
<path d="M186 10H184V8H186V10Z" fill="white"/>
<path d="M198 10H196V8H198V10Z" fill="white"/>
<path d="M210 10H208V8L210 8V10Z" fill="white"/>
<path d="M138 10H136V8H138V10Z" fill="white"/>
<path d="M186 34H184V32H186V34Z" fill="white"/>
<path d="M198 34H196V32H198V34Z" fill="white"/>
<path d="M210 34H208V32H210V34Z" fill="white"/>
<path d="M138 34H136V32H138V34Z" fill="white"/>
<path d="M162 34H160V32H162V34Z" fill="white"/>
<path d="M114 34H112V32H114L114 34Z" fill="white"/>
<path d="M170 6H172V8H170V6Z" fill="white"/>
<path d="M122 6H124V8H122L122 6Z" fill="white"/>
<path d="M194 6H196V8H194V6Z" fill="white"/>
<path d="M206 6H208V8H206V6Z" fill="white"/>
<path d="M146 6H148V8H146V6Z" fill="white"/>
<path d="M194 30H196V32H194V30Z" fill="white"/>
<path d="M206 30H208V32H206V30Z" fill="white"/>
<path d="M194 42H196V44H194V42Z" fill="white"/>
<path d="M206 42H208V44H206V42Z" fill="white"/>
<path d="M146 30H148V32H146V30Z" fill="white"/>
<path d="M146 42H148V44H146V42Z" fill="white"/>
<path d="M170 30H172V32H170V30Z" fill="white"/>
<path d="M170 42H172V44H170V42Z" fill="white"/>
<path d="M122 30H124V32H122L122 30Z" fill="white"/>
<path d="M122 42H124V44H122L122 42Z" fill="white"/>
<path d="M150 10H148V8H150V10Z" fill="white"/>
<path d="M102 10H100V8.00001L102 8V10Z" fill="white"/>
<path d="M174 10H172V8H174V10Z" fill="white"/>
<path d="M126 10H124V8H126L126 10Z" fill="white"/>
<path d="M174 34H172V32H174V34Z" fill="white"/>
<path d="M126 34H124V32H126L126 34Z" fill="white"/>
<path d="M150 34H148V32H150V34Z" fill="white"/>
<path d="M102 34H100V32L102 32V34Z" fill="white"/>
<path d="M228 16H230V18H228V16Z" fill="white"/>
<path d="M216 40H214V38H216V40Z" fill="white"/>
<path d="M228 20H230V22H228V20Z" fill="white"/>
<path d="M214 6H216V8H214V6Z" fill="white"/>
<path d="M226 38H224V36H226V38Z" fill="white"/>
<path d="M216 16H218V18H216V16Z" fill="white"/>
<path d="M258 26H260V28H258V26Z" fill="white"/>
<path d="M220 40H222V42H220V40Z" fill="white"/>
<path d="M246 26H248V28H246V26Z" fill="white"/>
<path d="M212 12H210V10H212V12Z" fill="white"/>
<path d="M224 20H226V22H224V20Z" fill="white"/>
<path d="M288 36H286V34H288V36Z" fill="white"/>
<path d="M210 18H212V20H210V18Z" fill="white"/>
<path d="M284 4H286V6H284V4Z" fill="white"/>
<path d="M218 22H220V24H218V22Z" fill="white"/>
<path d="M274 18H276V20H274V18Z" fill="white"/>
<path d="M234 18H236V20H234V18Z" fill="white"/>
<path d="M222 34H220V32H222V34Z" fill="white"/>
<path d="M222 18H224V20H222V18Z" fill="white"/>
<path d="M286 18H288V20H286V18Z" fill="white"/>
<path d="M252 16H254V18H252V16Z" fill="white"/>
<path d="M210 6H212V8H210V6Z" fill="white"/>
<path d="M210 42H212V44H210V42Z" fill="white"/>
<path d="M246 18H248V20H246V18Z" fill="white"/>
<path d="M222 30H224V32H222V30Z" fill="white"/>
<path d="M252 24H254V26H252V24Z" fill="white"/>
<path d="M234 38H232V36H234V38Z" fill="white"/>
<path d="M212 16H210V14H212V16Z" fill="white"/>
<path d="M288 24H290V26H288V24Z" fill="white"/>
<path d="M264 40H262V38H264V40Z" fill="white"/>
<path d="M286 30H288V32H286V30Z" fill="white"/>
<path d="M278 10H276V8H278V10Z" fill="white"/>
<path d="M210 10H208V8L210 8V10Z" fill="white"/>
<path d="M208 20H210V22H208V20Z" fill="white"/>
<path d="M210 26H212V28H210V26Z" fill="white"/>
<path d="M268 36H266V34H268V36Z" fill="white"/>
<path d="M264 16H266V18H264V16Z" fill="white"/>
<path d="M222 10H220V8H222V10Z" fill="white"/>
<path d="M216 24H218V26H216V24Z" fill="white"/>
<path d="M254 10H252V8H254V10Z" fill="white"/>
<path d="M260 28H262V30H260V28Z" fill="white"/>
<path d="M238 30H240V32H238V30Z" fill="white"/>
<path d="M258 18H260V20H258V18Z" fill="white"/>
<path d="M222 6H224V8H222V6Z" fill="white"/>
<path d="M246 38H244V36H246V38Z" fill="white"/>
<path d="M220 4H222V6L220 6V4Z" fill="white"/>
<path d="M212 20H214V22H212V20Z" fill="white"/>
<path d="M276 28H278V30H276V28Z" fill="white"/>
<path d="M270 14H268V12H270V14Z" fill="white"/>
<path d="M212 16H214V18H212V16Z" fill="white"/>
<path d="M216 20H218V22H216V20Z" fill="white"/>
<path d="M234 42H236V44H234V42Z" fill="white"/>
<path d="M276 24H278V26H276V24Z" fill="white"/>
<path d="M222 14H220V12H222V14Z" fill="white"/>
<path d="M270 18H272V20H270V18Z" fill="white"/>
<path d="M270 38H268V36H270V38Z" fill="white"/>
<path d="M222 38H220V36H222V38Z" fill="white"/>
<path d="M228 24H230V26H228V24Z" fill="white"/>
<path d="M208 4H210V6H208V4Z" fill="white"/>
<path d="M270 22H272V24H270V22Z" fill="white"/>
<path d="M268 40H270V42H268V40Z" fill="white"/>
<path d="M270 26H272V28H270V26Z" fill="white"/>
<path d="M288 40H290V42H288V40Z" fill="white"/>
<path d="M274 10H272V8H274V10Z" fill="white"/>
<path d="M232 40H234V42H232V40Z" fill="white"/>
<path d="M240 16H242V18H240V16Z" fill="white"/>
<path d="M210 30H212V32H210V30Z" fill="white"/>
<path d="M210 38H208V36H210V38Z" fill="white"/>
<path d="M234 26H236V28H234V26Z" fill="white"/>
<path d="M222 26H224V28H222V26Z" fill="white"/>
<path d="M240 24H242V26H240V24Z" fill="white"/>
<path d="M210 14H208V12H210V14Z" fill="white"/>
<path d="M264 24H266V26H264V24Z" fill="white"/>
<path d="M258 38H256V36H258V38Z" fill="white"/>
<path d="M226 14H224V12H226V14Z" fill="white"/>
<path d="M246 14H244V12H246V14Z" fill="white"/>
<path d="M208 16H210V18H208V16Z" fill="white"/>
<path d="M252 20H254V22H252V20Z" fill="white"/>
<path d="M264 40H266V42H264V40Z" fill="white"/>
<path d="M252 40H254V42H252V40Z" fill="white"/>
<path d="M282 22H284V24H282V22Z" fill="white"/>
<path d="M266 26H268V28H266V26Z" fill="white"/>
<path d="M282 38H280V36H282V38Z" fill="white"/>
<path d="M218 38H216V36H218V38Z" fill="white"/>
<path d="M276 40H278V42H276V40Z" fill="white"/>
<path d="M210 22H212V24H210V22Z" fill="white"/>
<path d="M252 4H254V6H252V4Z" fill="white"/>
<path d="M292 12H290V10H292V12Z" fill="white"/>
<path d="M256 16H254V14H256V16Z" fill="white"/>
<path d="M228 28H230V30H228V28Z" fill="white"/>
<path d="M284 24H286V26H284V24Z" fill="white"/>
<path d="M264 4H266V6H264V4Z" fill="white"/>
<path d="M254 42H256V44H254V42Z" fill="white"/>
<path d="M212 40H214V42H212V40Z" fill="white"/>
<path d="M280 36H278V34H280V36Z" fill="white"/>
<path d="M288 12H286V10H288V12Z" fill="white"/>
<path d="M268 16H270V18H268V16Z" fill="white"/>
<path d="M228 40H230V42H228V40Z" fill="white"/>
<path d="M240 20H242V22H240V20Z" fill="white"/>
<path d="M228 12H226V10H228V12Z" fill="white"/>
<path d="M278 18H280V20H278V18Z" fill="white"/>
<path d="M214 18H216V20H214V18Z" fill="white"/>
<path d="M264 20H266V22H264V20Z" fill="white"/>
<path d="M288 28H290V30H288V28Z" fill="white"/>
<path d="M258 30H260V32H258V30Z" fill="white"/>
<path d="M288 20H290V22H288V20Z" fill="white"/>
<path d="M276 36H274V34H276V36Z" fill="white"/>
<path d="M288 40H286V38H288V40Z" fill="white"/>
<path d="M282 6L284 6V8H282V6Z" fill="white"/>
<path d="M234 22H236V24H234V22Z" fill="white"/>
<path d="M288 16H286V14H288V16Z" fill="white"/>
<path d="M238 18H240V20H238V18Z" fill="white"/>
<path d="M252 36H250V34H252V36Z" fill="white"/>
<path d="M282 14H280V12H282V14Z" fill="white"/>
<path d="M252 16H250V14H252V16Z" fill="white"/>
<path d="M216 40H218V42H216V40Z" fill="white"/>
<path d="M258 42H260V44H258V42Z" fill="white"/>
<path d="M218 26H220V28H218V26Z" fill="white"/>
<path d="M282 18H284V20H282V18Z" fill="white"/>
<path d="M276 16H278V18H276V16Z" fill="white"/>
<path d="M226 18H228V20H226V18Z" fill="white"/>
<path d="M258 22H260V24H258V22Z" fill="white"/>
<path d="M282 34H280V32H282V34Z" fill="white"/>
<path d="M240 40H242V42H240V40Z" fill="white"/>
<path d="M246 22H248V24H246V22Z" fill="white"/>
<path d="M218 14H216V12H218V14Z" fill="white"/>
<path d="M222 42H224V44H222V42Z" fill="white"/>
<path d="M282 10H280V8H282V10Z" fill="white"/>
<path d="M240 4H242V6H240V4Z" fill="white"/>
<path d="M284 28H286V30H284V28Z" fill="white"/>
<path d="M276 4H278V6H276V4Z" fill="white"/>
<path d="M228 36H226V34H228V36Z" fill="white"/>
<path d="M240 28H242V30H240V28Z" fill="white"/>
<path d="M278 26H280V28H278V26Z" fill="white"/>
<path d="M264 28H266V30H264V28Z" fill="white"/>
<path d="M278 22H280V24H278V22Z" fill="white"/>
<path d="M240 12H238V10H240V12Z" fill="white"/>
<path d="M280 24H282V26H280V24Z" fill="white"/>
<path d="M278 42H280V44H278V42Z" fill="white"/>
<path d="M208 24H210V26H208V24Z" fill="white"/>
<path d="M264 12H262V10H264V12Z" fill="white"/>
<path d="M224 24H226V26H224V24Z" fill="white"/>
<path d="M268 24H270V26H268V24Z" fill="white"/>
<path d="M280 4H282V6L280 6V4Z" fill="white"/>
<path d="M220 24H222V26H220V24Z" fill="white"/>
<path d="M238 26H240V28H238V26Z" fill="white"/>
<path d="M290 26H292V28H290V26Z" fill="white"/>
<path d="M274 26H276V28H274V26Z" fill="white"/>
<path d="M240 16H238V14H240V16Z" fill="white"/>
<path d="M280 28H282V30H280V28Z" fill="white"/>
<path d="M264 16H262V14H264V16Z" fill="white"/>
<path d="M278 34H276V32H278V34Z" fill="white"/>
<path d="M262 26H264V28H262V26Z" fill="white"/>
<path d="M216 16H214V14H216V16Z" fill="white"/>
<path d="M240 40H238V38H240V40Z" fill="white"/>
<path d="M286 22H288V24H286V22Z" fill="white"/>
<path d="M234 6H236V8H234V6Z" fill="white"/>
<path d="M288 16H290V18H288V16Z" fill="white"/>
<path d="M214 26H216V28H214V26Z" fill="white"/>
<path d="M258 6H260V8H258V6Z" fill="white"/>
<path d="M226 34H224V32H226V34Z" fill="white"/>
<path d="M234 30H236V32H234V30Z" fill="white"/>
<path d="M288 4H290V6H288V4Z" fill="white"/>
<path d="M210 34H208V32H210V34Z" fill="white"/>
<path d="M246 10H244V8H246V10Z" fill="white"/>
<path d="M226 10H224V8H226V10Z" fill="white"/>
<path d="M270 10H268V8H270V10Z" fill="white"/>
<path d="M218 30H220V32H218V30Z" fill="white"/>
<path d="M270 34H268V32H270V34Z" fill="white"/>
<path d="M246 34H244V32H246V34Z" fill="white"/>
<path d="M224 12H222V10H224V12Z" fill="white"/>
<path d="M246 6H248V8H246V6Z" fill="white"/>
<path d="M218 6L220 6V8H218V6Z" fill="white"/>
<path d="M224 36H222V34H224V36Z" fill="white"/>
<path d="M270 6H272V8H270V6Z" fill="white"/>
<path d="M214 34H212V32H214V34Z" fill="white"/>
<path d="M270 30H272V32H270V30Z" fill="white"/>
<path d="M282 42H284V44H282V42Z" fill="white"/>
<path d="M276 12H274V10H276V12Z" fill="white"/>
<path d="M262 18H264V20H262V18Z" fill="white"/>
<path d="M282 30H284V32H282V30Z" fill="white"/>
<path d="M246 30H248V32H246V30Z" fill="white"/>
<path d="M224 16H222V14H224V16Z" fill="white"/>
<path d="M218 18H220V20H218V18Z" fill="white"/>
<path d="M246 42H248V44H246V42Z" fill="white"/>
<path d="M234 10H232V8H234V10Z" fill="white"/>
<path d="M214 10H212V8L214 8V10Z" fill="white"/>
<path d="M224 40H222V38H224V40Z" fill="white"/>
<path d="M258 10H256V8H258V10Z" fill="white"/>
<path d="M256 20H258V22H256V20Z" fill="white"/>
<path d="M258 34H256V32H258V34Z" fill="white"/>
<path d="M290 14H288V12H290V14Z" fill="white"/>
<path d="M244 20H246V22H244V20Z" fill="white"/>
<path d="M234 34H232V32H234V34Z" fill="white"/>
<path d="M254 18H256V20H254V18Z" fill="white"/>
<path d="M238 22H240V24H238V22Z" fill="white"/>
<path d="M230 18H232V20H230V18Z" fill="white"/>
<path d="M266 18H268V20H266V18Z" fill="white"/>
<path d="M250 22H252V24H250V22Z" fill="white"/>
<path d="M252 28H254V30H252V28Z" fill="white"/>
<path d="M226 42H228V44H226V42Z" fill="white"/>
<path d="M242 18H244V20H242V18Z" fill="white"/>
<path d="M260 20H262V22H260V20Z" fill="white"/>
<path d="M232 28H234V30H232V28Z" fill="white"/>
<path d="M236 20H238V22H236V20Z" fill="white"/>
<path d="M232 4H234V6L232 6V4Z" fill="white"/>
<path d="M272 20H274V22H272V20Z" fill="white"/>
<path d="M248 16H250V18H248V16Z" fill="white"/>
<path d="M214 14H212V12H214V14Z" fill="white"/>
<path d="M234 14H232V12H234V14Z" fill="white"/>
<path d="M212 36H210V34H212V36Z" fill="white"/>
<path d="M284 20H286V22H284V20Z" fill="white"/>
<path d="M250 18H252V20H250V18Z" fill="white"/>
<path d="M248 20H250V22H248V20Z" fill="white"/>
<path d="M248 12H246V10H248V12Z" fill="white"/>
<path d="M254 26H256V28H254V26Z" fill="white"/>
<path d="M232 16H234V18H232V16Z" fill="white"/>
<path d="M212 4H214V6L212 6V4Z" fill="white"/>
<path d="M212 40H210V38H212V40Z" fill="white"/>
<path d="M230 26H232V28H230V26Z" fill="white"/>
<path d="M214 38H212V36H214V38Z" fill="white"/>
<path d="M250 14H248V12H250V14Z" fill="white"/>
<path d="M274 14H272V12H274V14Z" fill="white"/>
<path d="M256 16H258V18H256V16Z" fill="white"/>
<path d="M286 14H284V12H286V14Z" fill="white"/>
<path d="M232 24H234V26H232V24Z" fill="white"/>
<path d="M274 38H272V36H274V38Z" fill="white"/>
<path d="M244 16H246V18H244V16Z" fill="white"/>
<path d="M220 12H218V10H220V12Z" fill="white"/>
<path d="M214 30H216V32H214V30Z" fill="white"/>
<path d="M286 38H284V36H286V38Z" fill="white"/>
<path d="M276 16H274V14H276V16Z" fill="white"/>
<path d="M228 40H226V38H228V40Z" fill="white"/>
<path d="M250 38H248V36H250V38Z" fill="white"/>
<path d="M212 28H214V30H212V28Z" fill="white"/>
<path d="M258 14H256V12H258V14Z" fill="white"/>
<path d="M242 26H244V28H242V26Z" fill="white"/>
<path d="M276 20H278V22H276V20Z" fill="white"/>
<path d="M220 36H218V34H220V36Z" fill="white"/>
<path d="M238 14H236V12H238V14Z" fill="white"/>
<path d="M262 14H260V12H262V14Z" fill="white"/>
<path d="M260 36H258V34H260V36Z" fill="white"/>
<path d="M262 38H260V36H262V38Z" fill="white"/>
<path d="M236 40H234V38H236V40Z" fill="white"/>
<path d="M238 38H236V36H238V38Z" fill="white"/>
<path d="M236 16H234V14H236V16Z" fill="white"/>
<path d="M236 4H238V6L236 6V4Z" fill="white"/>
<path d="M260 12H258V10H260V12Z" fill="white"/>
<path d="M260 4H262V6L260 6V4Z" fill="white"/>
<path d="M260 40H258V38H260V40Z" fill="white"/>
<path d="M236 28H238V30H236V28Z" fill="white"/>
<path d="M238 6H240V8H238V6Z" fill="white"/>
<path d="M236 40H238V42H236V40Z" fill="white"/>
<path d="M280 16H282V18H280V16Z" fill="white"/>
<path d="M256 24H258V26H256V24Z" fill="white"/>
<path d="M244 12H242V10H244V12Z" fill="white"/>
<path d="M260 16H258V14H260V16Z" fill="white"/>
<path d="M268 12H266V10H268V12Z" fill="white"/>
<path d="M262 30H264V32H262V30Z" fill="white"/>
<path d="M280 12H278V10H280V12Z" fill="white"/>
<path d="M276 40H274V38H276V40Z" fill="white"/>
<path d="M292 36H290V34H292V36Z" fill="white"/>
<path d="M252 12H250V10H252V12Z" fill="white"/>
<path d="M226 26H228V28H226V26Z" fill="white"/>
<path d="M244 36H242V34H244V36Z" fill="white"/>
<path d="M242 10H240V8H242V10Z" fill="white"/>
<path d="M244 16H242V14H244V16Z" fill="white"/>
<path d="M262 6H264V8H262V6Z" fill="white"/>
<path d="M268 16H266V14H268V16Z" fill="white"/>
<path d="M280 16H278V14H280V16Z" fill="white"/>
<path d="M252 40H250V38H252V40Z" fill="white"/>
<path d="M270 42H272V44H270V42Z" fill="white"/>
<path d="M242 22H244V24H242V22Z" fill="white"/>
<path d="M292 16H290V14H292V16Z" fill="white"/>
<path d="M254 22H256V24H254V22Z" fill="white"/>
<path d="M220 16H218V14H220V16Z" fill="white"/>
<path d="M268 40H266V38H268V40Z" fill="white"/>
<path d="M280 40H278V38H280V40Z" fill="white"/>
<path d="M292 40H290V38H292V40Z" fill="white"/>
<path d="M220 40H218V38H220V40Z" fill="white"/>
<path d="M244 40H242V38H244V40Z" fill="white"/>
<path d="M248 4H250V6L248 6V4Z" fill="white"/>
<path d="M266 10H264V8H266V10Z" fill="white"/>
<path d="M272 4H274V6L272 6V4Z" fill="white"/>
<path d="M224 4H226V6L224 6V4Z" fill="white"/>
<path d="M272 28H274V30H272V28Z" fill="white"/>
<path d="M242 38H240V36H242V38Z" fill="white"/>
<path d="M284 40H286V42H284V40Z" fill="white"/>
<path d="M228 16H226V14H228V16Z" fill="white"/>
<path d="M224 28H226V30H224V28Z" fill="white"/>
<path d="M224 40H226V42H224V40Z" fill="white"/>
<path d="M212 24H214V26H212V24Z" fill="white"/>
<path d="M286 10H284V8H286V10Z" fill="white"/>
<path d="M216 28H218V30H216V28Z" fill="white"/>
<path d="M248 28H250V30H248V28Z" fill="white"/>
<path d="M248 40H250V42H248V40Z" fill="white"/>
<path d="M230 6L232 6V8H230V6Z" fill="white"/>
<path d="M278 30H280V32H278V30Z" fill="white"/>
<path d="M232 12H230V10H232V12Z" fill="white"/>
<path d="M256 12H254V10H256V12Z" fill="white"/>
<path d="M266 38H264V36H266V38Z" fill="white"/>
<path d="M256 36H254V34H256V36Z" fill="white"/>
<path d="M250 26H252V28H250V26Z" fill="white"/>
<path d="M232 36H230V34H232V36Z" fill="white"/>
<path d="M232 16H230V14H232V16Z" fill="white"/>
<path d="M266 14H264V12H266V14Z" fill="white"/>
<path d="M256 40H254V38H256V40Z" fill="white"/>
<path d="M290 18H292V20H290V18Z" fill="white"/>
<path d="M230 38H228V36H230V38Z" fill="white"/>
<path d="M232 40H230V38H232V40Z" fill="white"/>
<path d="M230 14H228V12H230V14Z" fill="white"/>
<path d="M230 22H232V24H230V22Z" fill="white"/>
<path d="M266 22H268V24H266V22Z" fill="white"/>
<path d="M290 22H292V24H290V22Z" fill="white"/>
<path d="M260 24H262V26H260V24Z" fill="white"/>
<path d="M272 40H274V42H272V40Z" fill="white"/>
<path d="M278 38H276V36H278V38Z" fill="white"/>
<path d="M244 24H246V26H244V24Z" fill="white"/>
<path d="M236 24H238V26H236V24Z" fill="white"/>
<path d="M260 40H262V42H260V40Z" fill="white"/>
<path d="M272 24H274V26H272V24Z" fill="white"/>
<path d="M248 24H250V26H248V24Z" fill="white"/>
<path d="M230 42H232V44H230V42Z" fill="white"/>
<path d="M286 34H284V32H286V34Z" fill="white"/>
<path d="M254 6L256 6V8H254V6Z" fill="white"/>
<path d="M242 42H244V44H242V42Z" fill="white"/>
<path d="M254 30H256V32H254V30Z" fill="white"/>
<path d="M280 20H282V22H280V20Z" fill="white"/>
<path d="M242 14H240V12H242V14Z" fill="white"/>
<path d="M250 10H248V8H250V10Z" fill="white"/>
<path d="M274 34H272V32H274V34Z" fill="white"/>
<path d="M248 36H246V34H248V36Z" fill="white"/>
<path d="M250 34H248V32H250V34Z" fill="white"/>
<path d="M256 40H258V42H256V40Z" fill="white"/>
<path d="M242 6L244 6V8H242V6Z" fill="white"/>
<path d="M266 6L268 6V8H266V6Z" fill="white"/>
<path d="M272 36H270V34H272V36Z" fill="white"/>
<path d="M278 6H280V8H278V6Z" fill="white"/>
<path d="M290 6L292 6V8H290V6Z" fill="white"/>
<path d="M266 30H268V32H266V30Z" fill="white"/>
<path d="M248 40H246V38H248V40Z" fill="white"/>
<path d="M290 30H292V32H290V30Z" fill="white"/>
<path d="M266 42H268V44H266V42Z" fill="white"/>
<path d="M230 30H232V32H230V30Z" fill="white"/>
<path d="M290 42H292V44H290V42Z" fill="white"/>
<path d="M232 20H234V22H232V20Z" fill="white"/>
<path d="M218 42H220V44H218V42Z" fill="white"/>
<path d="M284 36H282V34H284V36Z" fill="white"/>
<path d="M242 30H244V32H242V30Z" fill="white"/>
<path d="M248 16H246V14H248V16Z" fill="white"/>
<path d="M238 10H236V8H238V10Z" fill="white"/>
<path d="M272 12H270V10H272V12Z" fill="white"/>
<path d="M262 10H260V8H262V10Z" fill="white"/>
<path d="M272 40H270V38H272V40Z" fill="white"/>
<path d="M262 34H260V32H262V34Z" fill="white"/>
<path d="M244 28H246V30H244V28Z" fill="white"/>
<path d="M238 34H236V32H238V34Z" fill="white"/>
<path d="M244 4H246V6H244V4Z" fill="white"/>
<path d="M260 16H262V18H260V16Z" fill="white"/>
<path d="M236 36H234V34H236V36Z" fill="white"/>
<path d="M236 16H238V18H236V16Z" fill="white"/>
<path d="M236 12H234V10H236V12Z" fill="white"/>
<path d="M272 16H274V18H272V16Z" fill="white"/>
<path d="M284 16H286V18H284V16Z" fill="white"/>
<path d="M224 16H226V18H224V16Z" fill="white"/>
<path d="M220 16H222V18H220V16Z" fill="white"/>
<path d="M282 26H284V28H282V26Z" fill="white"/>
<path d="M278 14H276V12H278V14Z" fill="white"/>
<path d="M216 4H218V6H216V4Z" fill="white"/>
<path d="M290 38H288V36H290V38Z" fill="white"/>
<path d="M286 26H288V28H286V26Z" fill="white"/>
<path d="M216 36H214V34H216V36Z" fill="white"/>
<path d="M254 14H252V12H254V14Z" fill="white"/>
<path d="M254 38H252V36H254V38Z" fill="white"/>
<path d="M268 20H270V22H268V20Z" fill="white"/>
<path d="M220 20H222V22H220V20Z" fill="white"/>
<path d="M290 34H288V32H290V34Z" fill="white"/>
<path d="M262 22H264V24H262V22Z" fill="white"/>
<path d="M214 22H216V24H214V22Z" fill="white"/>
<path d="M274 22H276V24H274V22Z" fill="white"/>
<path d="M226 22H228V24H226V22Z" fill="white"/>
<path d="M256 4H258V6H256V4Z" fill="white"/>
<path d="M256 28H258V30H256V28Z" fill="white"/>
<path d="M208 28H210V30H208V28Z" fill="white"/>
<path d="M208 40H210V42H208V40Z" fill="white"/>
<path d="M284 12H282V10H284V12Z" fill="white"/>
<path d="M264 36H262V34H264V36Z" fill="white"/>
<path d="M272 16H270V14H272V16Z" fill="white"/>
<path d="M284 16H282V14H284V16Z" fill="white"/>
<path d="M240 36H238V34H240V36Z" fill="white"/>
<path d="M284 40H282V38H284V40Z" fill="white"/>
<path d="M268 4H270V6H268V4Z" fill="white"/>
<path d="M268 28H270V30H268V28Z" fill="white"/>
<path d="M280 40H282V42H280V40Z" fill="white"/>
<path d="M216 12H214V10H216V12Z" fill="white"/>
<path d="M220 28H222V30H220V28Z" fill="white"/>
<path d="M244 40H246V42H244V40Z" fill="white"/>
<path d="M222 22H224V24H222V22Z" fill="white"/>
<path d="M262 42H264V44H262V42Z" fill="white"/>
<path d="M214 42H216V44H214V42Z" fill="white"/>
<path d="M228 4H230V6L228 6V4Z" fill="white"/>
<path d="M238 42H240V44H238V42Z" fill="white"/>
<path d="M290 10H288V8H290V10Z" fill="white"/>
<path d="M218 10H216V8H218V10Z" fill="white"/>
<path d="M266 34H264V32H266V34Z" fill="white"/>
<path d="M218 34H216V32H218V34Z" fill="white"/>
<path d="M242 34H240V32H242V34Z" fill="white"/>
<path d="M250 6H252V8H250V6Z" fill="white"/>
<path d="M274 6H276V8H274V6Z" fill="white"/>
<path d="M286 6H288V8H286V6Z" fill="white"/>
<path d="M226 6H228V8H226V6Z" fill="white"/>
<path d="M274 30H276V32H274V30Z" fill="white"/>
<path d="M274 42H276V44H274V42Z" fill="white"/>
<path d="M286 42H288V44H286V42Z" fill="white"/>
<path d="M226 30H228V32H226V30Z" fill="white"/>
<path d="M250 30H252V32H250V30Z" fill="white"/>
<path d="M250 42H252V44H250V42Z" fill="white"/>
<path d="M230 10H228V8H230V10Z" fill="white"/>
<path d="M254 34H252V32H254V34Z" fill="white"/>
<path d="M230 34H228V32H230V34Z" fill="white"/>
<path d="M302 6H304V8H302V6Z" fill="white"/>
<path d="M302 30H304V32H302V30Z" fill="white"/>
<path d="M314 34H312V32H314V34Z" fill="white"/>
<path d="M318 18H320V20H318V18Z" fill="white"/>
<path d="M320 28H322V30H320V28Z" fill="white"/>
<path d="M312 40H310V38H312V40Z" fill="white"/>
<path d="M302 18H304V20H302V18Z" fill="white"/>
<path d="M324 16H322V14H324V16Z" fill="white"/>
<path d="M308 40H306V38H308V40Z" fill="white"/>
<path d="M302 14H300V12H302V14Z" fill="white"/>
<path d="M296 4H298V6H296V4Z" fill="white"/>
<path d="M296 40H298V42H296V40Z" fill="white"/>
<path d="M306 38H304V36H306V38Z" fill="white"/>
<path d="M314 10H312V8H314V10Z" fill="white"/>
<path d="M300 36H298V34H300V36Z" fill="white"/>
<path d="M316 36H314V34H316V36Z" fill="white"/>
<path d="M308 16H310V18H308V16Z" fill="white"/>
<path d="M322 6H324V8H322V6Z" fill="white"/>
<path d="M294 6L296 6V8H294V6Z" fill="white"/>
<path d="M308 28H310V30H308V28Z" fill="white"/>
<path d="M312 16H314V18H312V16Z" fill="white"/>
<path d="M306 34H304V32H306V34Z" fill="white"/>
<path d="M302 38H300V36H302V38Z" fill="white"/>
<path d="M298 6L300 6V8H298V6Z" fill="white"/>
<path d="M302 26H304V28H302V26Z" fill="white"/>
<path d="M320 16H318V14H320V16Z" fill="white"/>
<path d="M294 30H296V32H294V30Z" fill="white"/>
<path d="M292 40H294V42H292V40Z" fill="white"/>
<path d="M302 22H304V24H302V22Z" fill="white"/>
<path d="M300 16H302V18H300V16Z" fill="white"/>
<path d="M298 30H300V32H298V30Z" fill="white"/>
<path d="M320 40H322V42H320V40Z" fill="white"/>
<path d="M320 16H322V18H320V16Z" fill="white"/>
<path d="M306 6H308V8H306V6Z" fill="white"/>
<path d="M316 20H318V22H316V20Z" fill="white"/>
<path d="M320 36H318V34H320V36Z" fill="white"/>
<path d="M296 24H298V26H296V24Z" fill="white"/>
<path d="M314 22H316V24H314V22Z" fill="white"/>
<path d="M324 40H322V38H324V40Z" fill="white"/>
<path d="M318 34H316V32H318V34Z" fill="white"/>
<path d="M316 28H318V30H316V28Z" fill="white"/>
<path d="M314 38H312V36H314V38Z" fill="white"/>
<path d="M314 42H316V44H314V42Z" fill="white"/>
<path d="M306 42H308V44H306V42Z" fill="white"/>
<path d="M308 40H310V42H308V40Z" fill="white"/>
<path d="M306 18H308V20H306V18Z" fill="white"/>
<path d="M312 20H314V22H312V20Z" fill="white"/>
<path d="M324 12H322V10H324V12Z" fill="white"/>
<path d="M324 36H322V34H324V36Z" fill="white"/>
<path d="M316 24H318V26H316V24Z" fill="white"/>
<path d="M316 4H318V6H316V4Z" fill="white"/>
<path d="M306 14H304V12H306V14Z" fill="white"/>
<path d="M294 38H292V36H294V38Z" fill="white"/>
<path d="M300 40H302V42H300V40Z" fill="white"/>
<path d="M292 4H294V6H292V4Z" fill="white"/>
<path d="M296 20H298V22H296V20Z" fill="white"/>
<path d="M300 40H298V38H300V40Z" fill="white"/>
<path d="M296 16H298V18H296V16Z" fill="white"/>
<path d="M298 26H300V28H298V26Z" fill="white"/>
<path d="M310 38H308V36H310V38Z" fill="white"/>
<path d="M310 10H308V8H310V10Z" fill="white"/>
<path d="M310 18H312V20H310V18Z" fill="white"/>
<path d="M298 10H296V8H298V10Z" fill="white"/>
<path d="M308 20H310V22H308V20Z" fill="white"/>
<path d="M306 10H304V8H306V10Z" fill="white"/>
<path d="M308 36H306V34H308V36Z" fill="white"/>
<path d="M296 40H294V38H296V40Z" fill="white"/>
<path d="M322 30H324V32H322V30Z" fill="white"/>
<path d="M292 28H294V30H292V28Z" fill="white"/>
<path d="M304 4H306V6H304V4Z" fill="white"/>
<path d="M304 24H306V26H304V24Z" fill="white"/>
<path d="M320 40H318V38H320V40Z" fill="white"/>
<path d="M318 30H320V32H318V30Z" fill="white"/>
<path d="M298 42H300V44H298V42Z" fill="white"/>
<path d="M314 6L316 6V8H314V6Z" fill="white"/>
<path d="M304 12H302V10H304V12Z" fill="white"/>
<path d="M314 14H312V12H314V14Z" fill="white"/>
<path d="M314 18H316V20H314V18Z" fill="white"/>
<path d="M318 10H316V8H318V10Z" fill="white"/>
<path d="M310 6H312V8H310V6Z" fill="white"/>
<path d="M308 24H310V26H308V24Z" fill="white"/>
<path d="M308 4H310V6H308V4Z" fill="white"/>
<path d="M310 26H312V28H310V26Z" fill="white"/>
<path d="M304 40H306V42H304V40Z" fill="white"/>
<path d="M294 10H292V8H294V10Z" fill="white"/>
<path d="M296 28H298V30H296V28Z" fill="white"/>
<path d="M304 40H302V38H304V40Z" fill="white"/>
<path d="M310 22H312V24H310V22Z" fill="white"/>
<path d="M294 34H292V32H294V34Z" fill="white"/>
<path d="M312 24H314V26H312V24Z" fill="white"/>
<path d="M312 16H310V14H312V16Z" fill="white"/>
<path d="M320 12H318V10H320V12Z" fill="white"/>
<path d="M310 42H312V44H310V42Z" fill="white"/>
<path d="M298 22H300V24H298V22Z" fill="white"/>
<path d="M296 12H294V10H296V12Z" fill="white"/>
<path d="M300 24H302V26H300V24Z" fill="white"/>
<path d="M312 40H314V42H312V40Z" fill="white"/>
<path d="M312 4H314V6H312V4Z" fill="white"/>
<path d="M322 26H324V28H322V26Z" fill="white"/>
<path d="M306 26H308V28H306V26Z" fill="white"/>
<path d="M312 28H314V30H312V28Z" fill="white"/>
<path d="M292 20H294V22H292V20Z" fill="white"/>
<path d="M296 16H294V14H296V16Z" fill="white"/>
<path d="M322 38H320V36H322V38Z" fill="white"/>
<path d="M310 34H308V32H310V34Z" fill="white"/>
<path d="M318 26H320V28H318V26Z" fill="white"/>
<path d="M294 26H296V28H294V26Z" fill="white"/>
<path d="M318 22H320V24H318V22Z" fill="white"/>
<path d="M316 40H314V38H316V40Z" fill="white"/>
<path d="M320 4H322V6L320 6V4Z" fill="white"/>
<path d="M308 16H306V14H308V16Z" fill="white"/>
<path d="M302 10H300V8H302V10Z" fill="white"/>
<path d="M316 12H314V10H316V12Z" fill="white"/>
<path d="M302 34H300V32H302V34Z" fill="white"/>
<path d="M306 30H308V32H306V30Z" fill="white"/>
<path d="M308 12H306V10H308V12Z" fill="white"/>
<path d="M318 42H320V44H318V42Z" fill="white"/>
<path d="M294 18H296V20H294V18Z" fill="white"/>
<path d="M318 14H316V12H318V14Z" fill="white"/>
<path d="M314 30H316V32H314V30Z" fill="white"/>
<path d="M322 14H320V12H322V14Z" fill="white"/>
<path d="M298 18H300V20H298V18Z" fill="white"/>
<path d="M304 20H306V22H304V20Z" fill="white"/>
<path d="M318 38H316V36H318V38Z" fill="white"/>
<path d="M294 14H292V12H294V14Z" fill="white"/>
<path d="M300 12H298V10H300V12Z" fill="white"/>
<path d="M312 12H310V10H312V12Z" fill="white"/>
<path d="M300 16H298V14H300V16Z" fill="white"/>
<path d="M312 36H310V34H312V36Z" fill="white"/>
<path d="M302 42H304V44H302V42Z" fill="white"/>
<path d="M320 20H322V22H320V20Z" fill="white"/>
<path d="M320 24H322V26H320V24Z" fill="white"/>
<path d="M304 28H306V30H304V28Z" fill="white"/>
<path d="M304 16H306V18H304V16Z" fill="white"/>
<path d="M316 40H318V42H316V40Z" fill="white"/>
<path d="M310 30H312V32H310V30Z" fill="white"/>
<path d="M292 16H294V18H292V16Z" fill="white"/>
<path d="M298 38H296V36H298V38Z" fill="white"/>
<path d="M294 22H296V24H294V22Z" fill="white"/>
<path d="M298 14H296V12H298V14Z" fill="white"/>
<path d="M314 26H316V28H314V26Z" fill="white"/>
<path d="M322 18H324V20H322V18Z" fill="white"/>
<path d="M322 34H320V32H322V34Z" fill="white"/>
<path d="M322 22H324V24H322V22Z" fill="white"/>
<path d="M300 20H302V22H300V20Z" fill="white"/>
<path d="M292 24H294V26H292V24Z" fill="white"/>
<path d="M304 36H302V34H304V36Z" fill="white"/>
<path d="M322 42H324V44H322V42Z" fill="white"/>
<path d="M316 16H318V18H316V16Z" fill="white"/>
<path d="M310 14H308V12H310V14Z" fill="white"/>
<path d="M306 22H308V24H306V22Z" fill="white"/>
<path d="M296 36H294V34H296V36Z" fill="white"/>
<path d="M304 16H302V14H304V16Z" fill="white"/>
<path d="M316 16H314V14H316V16Z" fill="white"/>
<path d="M300 4H302V6H300V4Z" fill="white"/>
<path d="M300 28H302V30H300V28Z" fill="white"/>
<path d="M294 42H296V44H294V42Z" fill="white"/>
<path d="M322 10H320V8H322V10Z" fill="white"/>
<path d="M298 34H296V32H298V34Z" fill="white"/>
<path d="M318 6H320V8H318V6Z" fill="white"/>
</g>
<defs>
<filter id="filter0_iiii_2512_46" x="0" y="0" width="328" height="48" filterUnits="userSpaceOnUse" color-interpolation-filters="sRGB">
<feFlood flood-opacity="0" result="BackgroundImageFix"/>
<feBlend mode="normal" in="SourceGraphic" in2="BackgroundImageFix" result="shape"/>
<feColorMatrix in="SourceAlpha" type="matrix" values="0 0 0 0 0 0 0 0 0 0 0 0 0 0 0 0 0 0 127 0" result="hardAlpha"/>
<feOffset dx="-4" dy="-4"/>
<feComposite in2="hardAlpha" operator="arithmetic" k2="-1" k3="1"/>
<feColorMatrix type="matrix" values="0 0 0 0 1 0 0 0 0 1 0 0 0 0 1 0 0 0 1 0"/>
<feBlend mode="normal" in2="shape" result="effect1_innerShadow_2512_46"/>
<feColorMatrix in="SourceAlpha" type="matrix" values="0 0 0 0 0 0 0 0 0 0 0 0 0 0 0 0 0 0 127 0" result="hardAlpha"/>
<feOffset dx="4" dy="4"/>
<feComposite in2="hardAlpha" operator="arithmetic" k2="-1" k3="1"/>
<feColorMatrix type="matrix" values="0 0 0 0 0.336337 0 0 0 0 0.336337 0 0 0 0 0.336337 0 0 0 1 0"/>
<feBlend mode="normal" in2="effect1_innerShadow_2512_46" result="effect2_innerShadow_2512_46"/>
<feColorMatrix in="SourceAlpha" type="matrix" values="0 0 0 0 0 0 0 0 0 0 0 0 0 0 0 0 0 0 127 0" result="hardAlpha"/>
<feOffset dx="-2" dy="-2"/>
<feComposite in2="hardAlpha" operator="arithmetic" k2="-1" k3="1"/>
<feColorMatrix type="matrix" values="0 0 0 0 0.830767 0 0 0 0 0.830767 0 0 0 0 0.830767 0 0 0 1 0"/>
<feBlend mode="normal" in2="effect2_innerShadow_2512_46" result="effect3_innerShadow_2512_46"/>
<feColorMatrix in="SourceAlpha" type="matrix" values="0 0 0 0 0 0 0 0 0 0 0 0 0 0 0 0 0 0 127 0" result="hardAlpha"/>
<feOffset dx="2" dy="2"/>
<feComposite in2="hardAlpha" operator="arithmetic" k2="-1" k3="1"/>
<feColorMatrix type="matrix" values="0 0 0 0 0 0 0 0 0 0 0 0 0 0 0 0 0 0 1 0"/>
<feBlend mode="normal" in2="effect3_innerShadow_2512_46" result="effect4_innerShadow_2512_46"/>
</filter>
</defs>
</svg>
